<svg width="1253" height="701" viewBox="0 0 1253 701" fill="none" xmlns="http://www.w3.org/2000/svg">
<path d="M0 0H1253V701H0V0Z" fill="#FAF8FF"/>
<path d="M704.652 371.385H710.365L715.305 382.951L716.342 385.816H716.676L717.695 382.951L722.635 371.385H728.348V399H724.041V383.795L724.498 376.764H724.305L717.484 392.303H715.516L708.502 376.764H708.309L708.959 383.795V399H704.652V371.385ZM733.604 393.586C733.604 391.43 734.348 389.789 735.836 388.664C737.336 387.527 739.539 386.959 742.445 386.959H744.977V385.869C744.977 385.225 744.9 384.662 744.748 384.182C744.607 383.689 744.373 383.279 744.045 382.951C743.729 382.623 743.307 382.377 742.779 382.213C742.264 382.037 741.631 381.949 740.881 381.949C740.365 381.949 739.879 381.99 739.422 382.072C738.965 382.154 738.514 382.266 738.068 382.406C737.623 382.547 737.166 382.717 736.697 382.916C736.24 383.115 735.754 383.326 735.238 383.549V380.051C735.695 379.828 736.164 379.629 736.645 379.453C737.125 379.277 737.635 379.131 738.174 379.014C738.713 378.885 739.287 378.791 739.896 378.732C740.506 378.674 741.168 378.645 741.883 378.645C744.355 378.645 746.195 379.271 747.402 380.525C748.621 381.779 749.23 383.607 749.23 386.01V394.43C749.23 394.863 749.23 395.268 749.23 395.643C749.23 396.018 749.242 396.387 749.266 396.75C749.301 397.113 749.354 397.482 749.424 397.857C749.494 398.221 749.6 398.602 749.74 399H745.398C745.281 398.684 745.193 398.344 745.135 397.98C745.076 397.617 745.035 397.248 745.012 396.873C744.391 397.646 743.635 398.262 742.744 398.719C741.865 399.176 740.834 399.404 739.65 399.404C738.736 399.404 737.904 399.246 737.154 398.93C736.416 398.613 735.783 398.191 735.256 397.664C734.729 397.125 734.318 396.504 734.025 395.801C733.744 395.098 733.604 394.359 733.604 393.586ZM737.91 393.006C737.91 393.393 737.969 393.773 738.086 394.148C738.203 394.512 738.385 394.84 738.631 395.133C738.889 395.426 739.217 395.66 739.615 395.836C740.014 396.012 740.494 396.1 741.057 396.1C741.771 396.1 742.469 395.953 743.148 395.66C743.828 395.367 744.438 394.922 744.977 394.324V389.824H742.604C741.725 389.824 740.986 389.9 740.389 390.053C739.791 390.205 739.305 390.422 738.93 390.703C738.566 390.984 738.303 391.324 738.139 391.723C737.986 392.109 737.91 392.537 737.91 393.006ZM755.119 368.924H759.373V387.029L766.018 379.049H770.975L763.908 386.801L772.152 399H767.389L761.219 389.736L759.373 391.775V399H755.119V368.924ZM773.541 388.893C773.541 387.111 773.781 385.576 774.262 384.287C774.754 382.998 775.404 381.938 776.213 381.105C777.033 380.273 777.971 379.658 779.025 379.26C780.092 378.861 781.199 378.662 782.348 378.662C783.426 378.662 784.422 378.838 785.336 379.189C786.25 379.529 787.035 380.045 787.691 380.736C788.359 381.428 788.875 382.295 789.238 383.338C789.613 384.369 789.801 385.57 789.801 386.941C789.801 387.551 789.754 388.148 789.66 388.734C789.578 389.32 789.438 389.883 789.238 390.422H778.059C778.199 391.629 778.439 392.602 778.779 393.34C779.119 394.078 779.535 394.652 780.027 395.062C780.52 395.473 781.07 395.748 781.68 395.889C782.289 396.029 782.939 396.1 783.631 396.1C784.557 396.1 785.395 395.977 786.145 395.73C786.895 395.484 787.639 395.156 788.377 394.746V398.121C787.463 398.59 786.543 398.918 785.617 399.105C784.703 399.305 783.789 399.404 782.875 399.404C781.434 399.404 780.133 399.17 778.973 398.701C777.824 398.232 776.846 397.553 776.037 396.662C775.24 395.76 774.625 394.658 774.191 393.357C773.758 392.045 773.541 390.557 773.541 388.893ZM785.582 387.557C785.699 386.713 785.717 385.945 785.635 385.254C785.553 384.562 785.365 383.971 785.072 383.479C784.791 382.986 784.41 382.611 783.93 382.354C783.449 382.084 782.875 381.949 782.207 381.949C780.953 381.949 779.939 382.43 779.166 383.391C778.404 384.34 777.994 385.729 777.936 387.557H785.582ZM804.936 394.658C805.803 395.186 806.693 395.566 807.607 395.801C808.521 396.023 809.324 396.135 810.016 396.135C811.047 396.135 811.844 395.941 812.406 395.555C812.969 395.156 813.25 394.605 813.25 393.902C813.25 393.504 813.15 393.164 812.951 392.883C812.764 392.59 812.494 392.314 812.143 392.057C811.791 391.787 811.363 391.518 810.859 391.248C810.367 390.979 809.816 390.656 809.207 390.281C808.645 389.941 808.1 389.584 807.572 389.209C807.045 388.822 806.576 388.389 806.166 387.908C805.756 387.428 805.428 386.883 805.182 386.273C804.936 385.652 804.812 384.938 804.812 384.129C804.812 383.332 804.959 382.6 805.252 381.932C805.557 381.264 805.996 380.689 806.57 380.209C807.156 379.717 807.877 379.336 808.732 379.066C809.6 378.797 810.59 378.662 811.703 378.662C811.996 378.662 812.324 378.68 812.688 378.715C813.062 378.738 813.438 378.785 813.812 378.855C814.199 378.914 814.568 379.002 814.92 379.119C815.283 379.225 815.605 379.354 815.887 379.506V382.811C815.664 382.682 815.395 382.559 815.078 382.441C814.773 382.312 814.445 382.207 814.094 382.125C813.754 382.031 813.408 381.961 813.057 381.914C812.705 381.855 812.377 381.826 812.072 381.826C811.533 381.826 811.064 381.885 810.666 382.002C810.279 382.119 809.957 382.277 809.699 382.477C809.453 382.664 809.266 382.893 809.137 383.162C809.02 383.432 808.961 383.713 808.961 384.006C808.961 384.381 809.043 384.721 809.207 385.025C809.383 385.318 809.623 385.6 809.928 385.869C810.232 386.139 810.596 386.408 811.018 386.678C811.451 386.936 811.932 387.223 812.459 387.539C813.01 387.867 813.572 388.219 814.146 388.594C814.721 388.969 815.236 389.396 815.693 389.877C816.162 390.357 816.543 390.914 816.836 391.547C817.141 392.168 817.293 392.889 817.293 393.709C817.293 394.553 817.129 395.326 816.801 396.029C816.484 396.721 816.021 397.318 815.412 397.822C814.803 398.326 814.053 398.719 813.162 399C812.283 399.27 811.287 399.404 810.174 399.404C809.295 399.404 808.393 399.311 807.467 399.123C806.553 398.936 805.709 398.654 804.936 398.279V394.658ZM820.703 389.068C820.703 387.393 820.92 385.91 821.354 384.621C821.787 383.32 822.391 382.23 823.164 381.352C823.949 380.473 824.881 379.805 825.959 379.348C827.037 378.891 828.221 378.662 829.51 378.662C830.787 378.662 831.965 378.885 833.043 379.33C834.121 379.775 835.053 380.432 835.838 381.299C836.623 382.166 837.232 383.244 837.666 384.533C838.111 385.811 838.334 387.287 838.334 388.963C838.334 390.639 838.111 392.127 837.666 393.428C837.232 394.729 836.623 395.824 835.838 396.715C835.064 397.594 834.133 398.262 833.043 398.719C831.965 399.176 830.787 399.404 829.51 399.404C828.221 399.404 827.037 399.182 825.959 398.736C824.881 398.279 823.949 397.617 823.164 396.75C822.391 395.871 821.787 394.793 821.354 393.516C820.92 392.227 820.703 390.744 820.703 389.068ZM829.51 396.1C830.178 396.1 830.781 395.965 831.32 395.695C831.871 395.414 832.34 394.986 832.727 394.412C833.125 393.826 833.43 393.082 833.641 392.18C833.863 391.277 833.975 390.205 833.975 388.963C833.975 387.721 833.863 386.66 833.641 385.781C833.43 384.891 833.125 384.164 832.727 383.602C832.34 383.027 831.871 382.611 831.32 382.354C830.781 382.084 830.178 381.949 829.51 381.949C828.854 381.949 828.25 382.09 827.699 382.371C827.148 382.641 826.674 383.068 826.275 383.654C825.889 384.229 825.584 384.967 825.361 385.869C825.15 386.76 825.045 387.826 825.045 389.068C825.045 390.311 825.15 391.377 825.361 392.268C825.584 393.146 825.889 393.873 826.275 394.447C826.674 395.01 827.148 395.426 827.699 395.695C828.25 395.965 828.854 396.1 829.51 396.1ZM842.975 379.049H846.719L846.965 381.281C847.574 380.496 848.354 379.863 849.303 379.383C850.264 378.902 851.436 378.662 852.818 378.662C854.189 378.662 855.35 378.938 856.299 379.488C857.26 380.039 857.992 380.883 858.496 382.02C858.789 381.527 859.135 381.076 859.533 380.666C859.943 380.256 860.406 379.904 860.922 379.611C861.449 379.307 862.035 379.072 862.68 378.908C863.336 378.744 864.062 378.662 864.859 378.662C866.91 378.662 868.498 379.289 869.623 380.543C870.748 381.797 871.311 383.713 871.311 386.291V399H867.057V386.432C867.057 384.908 866.764 383.783 866.178 383.057C865.592 382.318 864.766 381.949 863.699 381.949C862.785 381.949 861.936 382.154 861.15 382.564C860.365 382.963 859.697 383.566 859.146 384.375C859.182 384.68 859.211 384.99 859.234 385.307C859.258 385.623 859.27 385.951 859.27 386.291V399H855.016V386.432C855.016 384.908 854.723 383.783 854.137 383.057C853.551 382.318 852.725 381.949 851.658 381.949C850.779 381.949 849.959 382.137 849.197 382.512C848.436 382.875 847.779 383.438 847.229 384.199V399H842.975V379.049ZM875.811 388.893C875.811 387.111 876.051 385.576 876.531 384.287C877.023 382.998 877.674 381.938 878.482 381.105C879.303 380.273 880.24 379.658 881.295 379.26C882.361 378.861 883.469 378.662 884.617 378.662C885.695 378.662 886.691 378.838 887.605 379.189C888.52 379.529 889.305 380.045 889.961 380.736C890.629 381.428 891.145 382.295 891.508 383.338C891.883 384.369 892.07 385.57 892.07 386.941C892.07 387.551 892.023 388.148 891.93 388.734C891.848 389.32 891.707 389.883 891.508 390.422H880.328C880.469 391.629 880.709 392.602 881.049 393.34C881.389 394.078 881.805 394.652 882.297 395.062C882.789 395.473 883.34 395.748 883.949 395.889C884.559 396.029 885.209 396.1 885.9 396.1C886.826 396.1 887.664 395.977 888.414 395.73C889.164 395.484 889.908 395.156 890.646 394.746V398.121C889.732 398.59 888.812 398.918 887.887 399.105C886.973 399.305 886.059 399.404 885.145 399.404C883.703 399.404 882.402 399.17 881.242 398.701C880.094 398.232 879.115 397.553 878.307 396.662C877.51 395.76 876.895 394.658 876.461 393.357C876.027 392.045 875.811 390.557 875.811 388.893ZM887.852 387.557C887.969 386.713 887.986 385.945 887.904 385.254C887.822 384.562 887.635 383.971 887.342 383.479C887.061 382.986 886.68 382.611 886.199 382.354C885.719 382.084 885.145 381.949 884.477 381.949C883.223 381.949 882.209 382.43 881.436 383.391C880.674 384.34 880.264 385.729 880.205 387.557H887.852ZM907.662 379.049H911.406L911.652 381.281C912.262 380.496 913.041 379.863 913.99 379.383C914.951 378.902 916.123 378.662 917.506 378.662C918.877 378.662 920.037 378.938 920.986 379.488C921.947 380.039 922.68 380.883 923.184 382.02C923.477 381.527 923.822 381.076 924.221 380.666C924.631 380.256 925.094 379.904 925.609 379.611C926.137 379.307 926.723 379.072 927.367 378.908C928.023 378.744 928.75 378.662 929.547 378.662C931.598 378.662 933.186 379.289 934.311 380.543C935.436 381.797 935.998 383.713 935.998 386.291V399H931.744V386.432C931.744 384.908 931.451 383.783 930.865 383.057C930.279 382.318 929.453 381.949 928.387 381.949C927.473 381.949 926.623 382.154 925.838 382.564C925.053 382.963 924.385 383.566 923.834 384.375C923.869 384.68 923.898 384.99 923.922 385.307C923.945 385.623 923.957 385.951 923.957 386.291V399H919.703V386.432C919.703 384.908 919.41 383.783 918.824 383.057C918.238 382.318 917.412 381.949 916.346 381.949C915.467 381.949 914.646 382.137 913.885 382.512C913.123 382.875 912.467 383.438 911.916 384.199V399H907.662V379.049ZM940.656 389.068C940.656 387.393 940.873 385.91 941.307 384.621C941.74 383.32 942.344 382.23 943.117 381.352C943.902 380.473 944.834 379.805 945.912 379.348C946.99 378.891 948.174 378.662 949.463 378.662C950.74 378.662 951.918 378.885 952.996 379.33C954.074 379.775 955.006 380.432 955.791 381.299C956.576 382.166 957.186 383.244 957.619 384.533C958.064 385.811 958.287 387.287 958.287 388.963C958.287 390.639 958.064 392.127 957.619 393.428C957.186 394.729 956.576 395.824 955.791 396.715C955.018 397.594 954.086 398.262 952.996 398.719C951.918 399.176 950.74 399.404 949.463 399.404C948.174 399.404 946.99 399.182 945.912 398.736C944.834 398.279 943.902 397.617 943.117 396.75C942.344 395.871 941.74 394.793 941.307 393.516C940.873 392.227 940.656 390.744 940.656 389.068ZM949.463 396.1C950.131 396.1 950.734 395.965 951.273 395.695C951.824 395.414 952.293 394.986 952.68 394.412C953.078 393.826 953.383 393.082 953.594 392.18C953.816 391.277 953.928 390.205 953.928 388.963C953.928 387.721 953.816 386.66 953.594 385.781C953.383 384.891 953.078 384.164 952.68 383.602C952.293 383.027 951.824 382.611 951.273 382.354C950.734 382.084 950.131 381.949 949.463 381.949C948.807 381.949 948.203 382.09 947.652 382.371C947.102 382.641 946.627 383.068 946.229 383.654C945.842 384.229 945.537 384.967 945.314 385.869C945.104 386.76 944.998 387.826 944.998 389.068C944.998 390.311 945.104 391.377 945.314 392.268C945.537 393.146 945.842 393.873 946.229 394.447C946.627 395.01 947.102 395.426 947.652 395.695C948.203 395.965 948.807 396.1 949.463 396.1ZM962.928 379.049H966.672L966.918 381.281C967.527 380.496 968.307 379.863 969.256 379.383C970.217 378.902 971.389 378.662 972.771 378.662C974.822 378.662 976.41 379.289 977.535 380.543C978.66 381.797 979.223 383.713 979.223 386.291V399H974.969V386.432C974.969 384.908 974.676 383.783 974.09 383.057C973.504 382.318 972.678 381.949 971.611 381.949C970.732 381.949 969.912 382.137 969.15 382.512C968.389 382.875 967.732 383.438 967.182 384.199V399H962.928V379.049ZM983.705 388.893C983.705 387.111 983.945 385.576 984.426 384.287C984.918 382.998 985.568 381.938 986.377 381.105C987.197 380.273 988.135 379.658 989.189 379.26C990.256 378.861 991.363 378.662 992.512 378.662C993.59 378.662 994.586 378.838 995.5 379.189C996.414 379.529 997.199 380.045 997.855 380.736C998.523 381.428 999.039 382.295 999.402 383.338C999.777 384.369 999.965 385.57 999.965 386.941C999.965 387.551 999.918 388.148 999.824 388.734C999.742 389.32 999.602 389.883 999.402 390.422H988.223C988.363 391.629 988.604 392.602 988.943 393.34C989.283 394.078 989.699 394.652 990.191 395.062C990.684 395.473 991.234 395.748 991.844 395.889C992.453 396.029 993.104 396.1 993.795 396.1C994.721 396.1 995.559 395.977 996.309 395.73C997.059 395.484 997.803 395.156 998.541 394.746V398.121C997.627 398.59 996.707 398.918 995.781 399.105C994.867 399.305 993.953 399.404 993.039 399.404C991.598 399.404 990.297 399.17 989.137 398.701C987.988 398.232 987.01 397.553 986.201 396.662C985.404 395.76 984.789 394.658 984.355 393.357C983.922 392.045 983.705 390.557 983.705 388.893ZM995.746 387.557C995.863 386.713 995.881 385.945 995.799 385.254C995.717 384.562 995.529 383.971 995.236 383.479C994.955 382.986 994.574 382.611 994.094 382.354C993.613 382.084 993.039 381.949 992.371 381.949C991.117 381.949 990.104 382.43 989.33 383.391C988.568 384.34 988.158 385.729 988.1 387.557H995.746ZM1005.5 404.572C1005.88 404.561 1006.24 404.52 1006.59 404.449C1006.96 404.379 1007.3 404.232 1007.63 404.01C1007.96 403.787 1008.26 403.465 1008.54 403.043C1008.84 402.633 1009.1 402.064 1009.33 401.338L1010.18 398.42H1008.61L1001.69 379.049H1006.26L1011.39 394.746H1011.65L1015.7 379.049H1020.13L1013.73 400.389C1013.38 401.525 1013.01 402.504 1012.62 403.324C1012.23 404.156 1011.83 404.859 1011.41 405.434C1010.99 406.008 1010.55 406.471 1010.09 406.822C1009.63 407.174 1009.16 407.449 1008.67 407.648C1008.17 407.848 1007.66 407.977 1007.14 408.035C1006.61 408.105 1006.06 408.141 1005.5 408.141V404.572Z" fill="#FAF8FF"/>
<rect x="116.5" y="28.5" width="340" height="615" rx="49.5" fill="white" stroke="#747171"/>
<rect x="144" y="81" width="290" height="483" fill="#7D4CDB"/>
<rect x="250.5" y="51.5" width="74" height="7" rx="3.5" fill="white" stroke="#C5C5C5"/>
<rect x="226.625" y="292.625" width="118.75" height="115.75" fill="#7D4CDB" stroke="white" stroke-width="0.75" stroke-linejoin="round"/>
<line x1="335" y1="307" x2="335" y2="408.5" stroke="white"/>
<rect x="236" y="353" width="98.5" height="1" fill="white"/>
<rect x="236" y="343" width="98.5" height="1" fill="white"/>
<rect x="236" y="383" width="98.5" height="1" fill="white"/>
<rect x="236" y="323" width="98.5" height="1" fill="white"/>
<rect x="236" y="313" width="98.5" height="1" fill="white"/>
<rect x="236" y="363" width="98.5" height="1" fill="white"/>
<rect x="236" y="403" width="98.5" height="1" fill="white"/>
<rect x="236" y="307" width="95" height="1" fill="white"/>
<rect x="236" y="373" width="98.5" height="1" fill="white"/>
<rect x="236" y="307" width="98.5" height="1" fill="white"/>
<rect x="236" y="333" width="98.5" height="1" fill="white"/>
<rect x="236" y="393" width="98.5" height="1" fill="white"/>
<line x1="236.5" y1="307" x2="236.5" y2="408.5" stroke="white"/>
<path d="M299.875 286.5C299.875 295.004 293.651 301.875 286 301.875C278.349 301.875 272.125 295.004 272.125 286.5C272.125 277.996 278.349 271.125 286 271.125C293.651 271.125 299.875 277.996 299.875 286.5Z" fill="#7D4CDB" stroke="white" stroke-width="0.25"/>
<path d="M291.725 281.564C291.471 281.441 291.178 281.311 290.846 281.174C290.514 281.031 290.133 280.904 289.703 280.793C289.28 280.682 288.801 280.591 288.268 280.52C287.734 280.441 287.141 280.402 286.49 280.402C285.702 280.402 284.999 280.448 284.381 280.539C283.769 280.63 283.248 280.773 282.818 280.969C282.395 281.158 282.07 281.398 281.842 281.691C281.62 281.984 281.51 282.333 281.51 282.736C281.51 283.075 281.614 283.371 281.822 283.625C282.037 283.879 282.324 284.104 282.682 284.299C283.046 284.494 283.469 284.673 283.951 284.836C284.439 284.992 284.954 285.142 285.494 285.285C286.041 285.422 286.601 285.562 287.174 285.705C287.753 285.848 288.313 286.005 288.854 286.174C289.4 286.337 289.915 286.522 290.396 286.73C290.885 286.932 291.308 287.17 291.666 287.443C292.031 287.717 292.317 288.029 292.525 288.381C292.74 288.732 292.848 289.139 292.848 289.602C292.848 290.103 292.753 290.542 292.564 290.92C292.376 291.291 292.118 291.613 291.793 291.887C291.474 292.154 291.096 292.378 290.66 292.561C290.23 292.736 289.768 292.876 289.273 292.98C288.785 293.085 288.277 293.156 287.75 293.195C287.229 293.241 286.715 293.264 286.207 293.264C285.042 293.264 283.984 293.179 283.033 293.01C282.089 292.84 281.188 292.609 280.328 292.316V290.822C281.214 291.35 282.148 291.711 283.131 291.906C284.12 292.102 285.159 292.199 286.246 292.199C287.014 292.199 287.724 292.154 288.375 292.062C289.026 291.971 289.589 291.828 290.064 291.633C290.54 291.431 290.908 291.171 291.168 290.852C291.435 290.533 291.568 290.142 291.568 289.68C291.568 289.309 291.461 288.983 291.246 288.703C291.038 288.423 290.751 288.179 290.387 287.971C290.029 287.756 289.605 287.567 289.117 287.404C288.635 287.242 288.124 287.092 287.584 286.955C287.044 286.812 286.484 286.675 285.904 286.545C285.331 286.408 284.775 286.262 284.234 286.105C283.694 285.949 283.18 285.773 282.691 285.578C282.21 285.383 281.786 285.155 281.422 284.895C281.064 284.628 280.777 284.322 280.562 283.977C280.354 283.632 280.25 283.231 280.25 282.775C280.25 282.326 280.335 281.929 280.504 281.584C280.673 281.232 280.904 280.93 281.197 280.676C281.497 280.422 281.845 280.21 282.242 280.041C282.639 279.865 283.062 279.729 283.512 279.631C283.967 279.527 284.439 279.452 284.928 279.406C285.416 279.361 285.898 279.338 286.373 279.338C286.894 279.338 287.385 279.361 287.848 279.406C288.316 279.452 288.766 279.514 289.195 279.592C289.632 279.663 290.055 279.748 290.465 279.846C290.882 279.943 291.301 280.048 291.725 280.158V281.564Z" fill="white"/>
<line x1="289.25" y1="275" x2="289.25" y2="299" stroke="white" stroke-width="0.5"/>
<line x1="283.25" y1="275" x2="283.25" y2="299" stroke="white" stroke-width="0.5"/>
<path d="M239.418 254.387C237.742 254.387 236.207 254.105 234.812 253.543C233.43 252.969 232.24 252.096 231.244 250.924C230.26 249.752 229.492 248.264 228.941 246.459C228.391 244.654 228.115 242.51 228.115 240.025C228.115 237.635 228.373 235.561 228.889 233.803C229.404 232.045 230.131 230.586 231.068 229.426C232.006 228.266 233.125 227.404 234.426 226.842C235.738 226.279 237.186 225.998 238.768 225.998C239.459 225.998 240.133 226.051 240.789 226.156C241.457 226.25 242.084 226.391 242.67 226.578C243.256 226.754 243.783 226.965 244.252 227.211C244.721 227.445 245.107 227.703 245.412 227.984V232.256C244.557 231.377 243.607 230.721 242.564 230.287C241.521 229.854 240.449 229.637 239.348 229.637C238.316 229.637 237.379 229.836 236.535 230.234C235.703 230.621 234.988 231.236 234.391 232.08C233.793 232.924 233.33 234.008 233.002 235.332C232.674 236.645 232.51 238.221 232.51 240.061C232.51 241.936 232.68 243.547 233.02 244.895C233.359 246.242 233.846 247.35 234.479 248.217C235.123 249.084 235.896 249.723 236.799 250.133C237.713 250.543 238.738 250.748 239.875 250.748C240.32 250.748 240.777 250.719 241.246 250.66C241.715 250.59 242.16 250.479 242.582 250.326V242.592H237.977V239.059H246.889V251.961C245.939 252.758 244.814 253.361 243.514 253.771C242.213 254.182 240.848 254.387 239.418 254.387ZM251.02 248.586C251.02 246.43 251.764 244.789 253.252 243.664C254.752 242.527 256.955 241.959 259.861 241.959H262.393V240.869C262.393 240.225 262.316 239.662 262.164 239.182C262.023 238.689 261.789 238.279 261.461 237.951C261.145 237.623 260.723 237.377 260.195 237.213C259.68 237.037 259.047 236.949 258.297 236.949C257.781 236.949 257.295 236.99 256.838 237.072C256.381 237.154 255.93 237.266 255.484 237.406C255.039 237.547 254.582 237.717 254.113 237.916C253.656 238.115 253.17 238.326 252.654 238.549V235.051C253.111 234.828 253.58 234.629 254.061 234.453C254.541 234.277 255.051 234.131 255.59 234.014C256.129 233.885 256.703 233.791 257.312 233.732C257.922 233.674 258.584 233.645 259.299 233.645C261.771 233.645 263.611 234.271 264.818 235.525C266.037 236.779 266.646 238.607 266.646 241.01V249.43C266.646 249.863 266.646 250.268 266.646 250.643C266.646 251.018 266.658 251.387 266.682 251.75C266.717 252.113 266.77 252.482 266.84 252.857C266.91 253.221 267.016 253.602 267.156 254H262.814C262.697 253.684 262.609 253.344 262.551 252.98C262.492 252.617 262.451 252.248 262.428 251.873C261.807 252.646 261.051 253.262 260.16 253.719C259.281 254.176 258.25 254.404 257.066 254.404C256.152 254.404 255.32 254.246 254.57 253.93C253.832 253.613 253.199 253.191 252.672 252.664C252.145 252.125 251.734 251.504 251.441 250.801C251.16 250.098 251.02 249.359 251.02 248.586ZM255.326 248.006C255.326 248.393 255.385 248.773 255.502 249.148C255.619 249.512 255.801 249.84 256.047 250.133C256.305 250.426 256.633 250.66 257.031 250.836C257.43 251.012 257.91 251.1 258.473 251.1C259.188 251.1 259.885 250.953 260.564 250.66C261.244 250.367 261.854 249.922 262.393 249.324V244.824H260.02C259.141 244.824 258.402 244.9 257.805 245.053C257.207 245.205 256.721 245.422 256.346 245.703C255.982 245.984 255.719 246.324 255.555 246.723C255.402 247.109 255.326 247.537 255.326 248.006ZM272.535 234.049H276.279L276.525 236.352C277.17 235.508 277.955 234.852 278.881 234.383C279.818 233.902 280.855 233.662 281.992 233.662C282.449 233.662 282.766 233.703 282.941 233.785V238.232C282.543 238.033 282.08 237.898 281.553 237.828C281.025 237.758 280.48 237.77 279.918 237.863C279.355 237.957 278.799 238.15 278.248 238.443C277.709 238.725 277.223 239.117 276.789 239.621V254H272.535V234.049ZM285.227 248.586C285.227 246.43 285.971 244.789 287.459 243.664C288.959 242.527 291.162 241.959 294.068 241.959H296.6V240.869C296.6 240.225 296.523 239.662 296.371 239.182C296.23 238.689 295.996 238.279 295.668 237.951C295.352 237.623 294.93 237.377 294.402 237.213C293.887 237.037 293.254 236.949 292.504 236.949C291.988 236.949 291.502 236.99 291.045 237.072C290.588 237.154 290.137 237.266 289.691 237.406C289.246 237.547 288.789 237.717 288.32 237.916C287.863 238.115 287.377 238.326 286.861 238.549V235.051C287.318 234.828 287.787 234.629 288.268 234.453C288.748 234.277 289.258 234.131 289.797 234.014C290.336 233.885 290.91 233.791 291.52 233.732C292.129 233.674 292.791 233.645 293.506 233.645C295.979 233.645 297.818 234.271 299.025 235.525C300.244 236.779 300.854 238.607 300.854 241.01V249.43C300.854 249.863 300.854 250.268 300.854 250.643C300.854 251.018 300.865 251.387 300.889 251.75C300.924 252.113 300.977 252.482 301.047 252.857C301.117 253.221 301.223 253.602 301.363 254H297.021C296.904 253.684 296.816 253.344 296.758 252.98C296.699 252.617 296.658 252.248 296.635 251.873C296.014 252.646 295.258 253.262 294.367 253.719C293.488 254.176 292.457 254.404 291.273 254.404C290.359 254.404 289.527 254.246 288.777 253.93C288.039 253.613 287.406 253.191 286.879 252.664C286.352 252.125 285.941 251.504 285.648 250.801C285.367 250.098 285.227 249.359 285.227 248.586ZM289.533 248.006C289.533 248.393 289.592 248.773 289.709 249.148C289.826 249.512 290.008 249.84 290.254 250.133C290.512 250.426 290.84 250.66 291.238 250.836C291.637 251.012 292.117 251.1 292.68 251.1C293.395 251.1 294.092 250.953 294.771 250.66C295.451 250.367 296.061 249.922 296.6 249.324V244.824H294.227C293.348 244.824 292.609 244.9 292.012 245.053C291.414 245.205 290.928 245.422 290.553 245.703C290.189 245.984 289.926 246.324 289.762 246.723C289.609 247.109 289.533 247.537 289.533 248.006ZM305.635 257.533C305.635 256.49 305.916 255.646 306.479 255.002C307.053 254.369 307.809 253.865 308.746 253.49C308.207 253.15 307.785 252.688 307.48 252.102C307.176 251.504 307.018 250.877 307.006 250.221C306.994 249.459 307.217 248.738 307.674 248.059C308.143 247.367 308.805 246.822 309.66 246.424C308.559 245.861 307.68 245.076 307.023 244.068C306.367 243.061 306.039 241.848 306.039 240.43C306.039 239.34 306.25 238.379 306.672 237.547C307.094 236.703 307.656 235.994 308.359 235.42C309.074 234.846 309.9 234.412 310.838 234.119C311.787 233.814 312.789 233.662 313.844 233.662C314.875 233.662 315.842 233.797 316.744 234.066C317.658 234.324 318.473 234.705 319.188 235.209C319.516 234.646 319.961 234.248 320.523 234.014C321.086 233.779 321.701 233.662 322.369 233.662H324.074V236.826H323.107C322.768 236.826 322.416 236.855 322.053 236.914C321.689 236.973 321.355 237.066 321.051 237.195C321.355 237.688 321.584 238.232 321.736 238.83C321.9 239.416 321.982 240.049 321.982 240.729C321.982 241.818 321.771 242.779 321.35 243.611C320.939 244.443 320.377 245.146 319.662 245.721C318.947 246.283 318.115 246.711 317.166 247.004C316.229 247.285 315.232 247.426 314.178 247.426C313.92 247.426 313.662 247.42 313.404 247.408C313.158 247.385 312.918 247.361 312.684 247.338C312.145 247.443 311.729 247.66 311.436 247.988C311.154 248.305 311.014 248.744 311.014 249.307C311.014 249.822 311.131 250.227 311.365 250.52C311.611 250.812 311.928 251.029 312.314 251.17C312.701 251.311 313.129 251.398 313.598 251.434C314.078 251.457 314.553 251.469 315.021 251.469C315.748 251.469 316.463 251.492 317.166 251.539C317.881 251.574 318.555 251.662 319.188 251.803C319.82 251.932 320.4 252.119 320.928 252.365C321.467 252.6 321.93 252.922 322.316 253.332C322.715 253.742 323.02 254.246 323.23 254.844C323.453 255.441 323.564 256.156 323.564 256.988C323.564 257.891 323.371 258.717 322.984 259.467C322.609 260.217 322.041 260.861 321.279 261.4C320.518 261.951 319.568 262.379 318.432 262.684C317.307 262.988 315.988 263.141 314.477 263.141C312.953 263.141 311.635 263 310.521 262.719C309.42 262.449 308.506 262.062 307.779 261.559C307.053 261.066 306.514 260.475 306.162 259.783C305.811 259.104 305.635 258.354 305.635 257.533ZM313.984 244.314C315.227 244.314 316.182 244.021 316.85 243.436C317.529 242.838 317.869 241.883 317.869 240.57C317.869 239.258 317.523 238.297 316.832 237.688C316.141 237.078 315.209 236.773 314.037 236.773C312.795 236.773 311.84 237.084 311.172 237.705C310.504 238.314 310.17 239.275 310.17 240.588C310.17 241.244 310.258 241.812 310.434 242.293C310.609 242.762 310.861 243.148 311.189 243.453C311.518 243.746 311.916 243.963 312.385 244.104C312.854 244.244 313.387 244.314 313.984 244.314ZM309.766 257.006C309.766 257.428 309.854 257.82 310.029 258.184C310.205 258.559 310.486 258.881 310.873 259.15C311.271 259.432 311.781 259.648 312.402 259.801C313.035 259.965 313.809 260.047 314.723 260.047C316.316 260.047 317.5 259.783 318.273 259.256C319.059 258.729 319.451 258.025 319.451 257.146C319.451 256.584 319.305 256.139 319.012 255.811C318.73 255.482 318.344 255.23 317.852 255.055C317.371 254.891 316.814 254.785 316.182 254.738C315.549 254.691 314.893 254.668 314.213 254.668C313.85 254.668 313.439 254.656 312.982 254.633C312.537 254.621 312.115 254.604 311.717 254.58C311.271 254.674 310.92 254.809 310.662 254.984C310.404 255.172 310.211 255.371 310.082 255.582C309.953 255.805 309.865 256.039 309.818 256.285C309.783 256.531 309.766 256.771 309.766 257.006ZM326.658 244.068C326.658 242.393 326.875 240.91 327.309 239.621C327.742 238.32 328.346 237.23 329.119 236.352C329.904 235.473 330.836 234.805 331.914 234.348C332.992 233.891 334.176 233.662 335.465 233.662C336.742 233.662 337.92 233.885 338.998 234.33C340.076 234.775 341.008 235.432 341.793 236.299C342.578 237.166 343.188 238.244 343.621 239.533C344.066 240.811 344.289 242.287 344.289 243.963C344.289 245.639 344.066 247.127 343.621 248.428C343.188 249.729 342.578 250.824 341.793 251.715C341.02 252.594 340.088 253.262 338.998 253.719C337.92 254.176 336.742 254.404 335.465 254.404C334.176 254.404 332.992 254.182 331.914 253.736C330.836 253.279 329.904 252.617 329.119 251.75C328.346 250.871 327.742 249.793 327.309 248.516C326.875 247.227 326.658 245.744 326.658 244.068ZM335.465 251.1C336.133 251.1 336.736 250.965 337.275 250.695C337.826 250.414 338.295 249.986 338.682 249.412C339.08 248.826 339.385 248.082 339.596 247.18C339.818 246.277 339.93 245.205 339.93 243.963C339.93 242.721 339.818 241.66 339.596 240.781C339.385 239.891 339.08 239.164 338.682 238.602C338.295 238.027 337.826 237.611 337.275 237.354C336.736 237.084 336.133 236.949 335.465 236.949C334.809 236.949 334.205 237.09 333.654 237.371C333.104 237.641 332.629 238.068 332.23 238.654C331.844 239.229 331.539 239.967 331.316 240.869C331.105 241.76 331 242.826 331 244.068C331 245.311 331.105 246.377 331.316 247.268C331.539 248.146 331.844 248.873 332.23 249.447C332.629 250.01 333.104 250.426 333.654 250.695C334.205 250.965 334.809 251.1 335.465 251.1Z" fill="white"/>
<path d="M743.619 381.832C744.639 382.535 745.617 383.027 746.555 383.309C747.504 383.59 748.43 383.73 749.332 383.73C750.129 383.73 750.803 383.637 751.354 383.449C751.904 383.25 752.344 382.998 752.672 382.693C753.012 382.377 753.252 382.025 753.393 381.639C753.545 381.24 753.621 380.842 753.621 380.443C753.621 379.799 753.475 379.213 753.182 378.686C752.889 378.158 752.502 377.654 752.021 377.174C751.553 376.693 751.014 376.23 750.404 375.785C749.807 375.34 749.191 374.877 748.559 374.396C747.926 373.916 747.305 373.412 746.695 372.885C746.086 372.346 745.541 371.754 745.061 371.109C744.592 370.453 744.211 369.732 743.918 368.947C743.637 368.15 743.496 367.26 743.496 366.275C743.496 365.15 743.689 364.143 744.076 363.252C744.475 362.35 745.02 361.588 745.711 360.967C746.402 360.346 747.223 359.871 748.172 359.543C749.121 359.203 750.152 359.033 751.266 359.033C752.156 359.033 753.047 359.133 753.938 359.332C754.828 359.52 755.602 359.777 756.258 360.105L756.24 364.184C755.396 363.633 754.6 363.24 753.85 363.006C753.1 362.771 752.355 362.654 751.617 362.654C750.961 362.654 750.387 362.742 749.895 362.918C749.414 363.094 749.01 363.334 748.682 363.639C748.365 363.943 748.125 364.301 747.961 364.711C747.809 365.109 747.732 365.543 747.732 366.012C747.732 366.691 747.873 367.307 748.154 367.857C748.447 368.396 748.828 368.906 749.297 369.387C749.777 369.867 750.322 370.33 750.932 370.775C751.541 371.209 752.156 371.66 752.777 372.129C753.41 372.598 754.031 373.09 754.641 373.605C755.25 374.121 755.789 374.695 756.258 375.328C756.738 375.949 757.119 376.646 757.4 377.42C757.693 378.193 757.84 379.066 757.84 380.039C757.84 381.129 757.646 382.125 757.26 383.027C756.885 383.93 756.34 384.703 755.625 385.348C754.922 385.992 754.061 386.496 753.041 386.859C752.033 387.211 750.902 387.387 749.648 387.387C749.133 387.387 748.6 387.352 748.049 387.281C747.498 387.223 746.953 387.135 746.414 387.018C745.887 386.9 745.377 386.76 744.885 386.596C744.404 386.42 743.977 386.221 743.602 385.998L743.619 381.832ZM761.32 376.893C761.32 375.111 761.561 373.576 762.041 372.287C762.533 370.998 763.184 369.938 763.992 369.105C764.812 368.273 765.75 367.658 766.805 367.26C767.871 366.861 768.979 366.662 770.127 366.662C771.205 366.662 772.201 366.838 773.115 367.189C774.029 367.529 774.814 368.045 775.471 368.736C776.139 369.428 776.654 370.295 777.018 371.338C777.393 372.369 777.58 373.57 777.58 374.941C777.58 375.551 777.533 376.148 777.439 376.734C777.357 377.32 777.217 377.883 777.018 378.422H765.838C765.979 379.629 766.219 380.602 766.559 381.34C766.898 382.078 767.314 382.652 767.807 383.062C768.299 383.473 768.85 383.748 769.459 383.889C770.068 384.029 770.719 384.1 771.41 384.1C772.336 384.1 773.174 383.977 773.924 383.73C774.674 383.484 775.418 383.156 776.156 382.746V386.121C775.242 386.59 774.322 386.918 773.396 387.105C772.482 387.305 771.568 387.404 770.654 387.404C769.213 387.404 767.912 387.17 766.752 386.701C765.604 386.232 764.625 385.553 763.816 384.662C763.02 383.76 762.404 382.658 761.971 381.357C761.537 380.045 761.32 378.557 761.32 376.893ZM773.361 375.557C773.479 374.713 773.496 373.945 773.414 373.254C773.332 372.562 773.145 371.971 772.852 371.479C772.57 370.986 772.189 370.611 771.709 370.354C771.229 370.084 770.654 369.949 769.986 369.949C768.732 369.949 767.719 370.43 766.945 371.391C766.184 372.34 765.773 373.729 765.715 375.557H773.361ZM782.396 356.924H786.598V387H782.396V356.924ZM792.592 356.924H796.793V387H792.592V356.924ZM813.105 382.658C813.973 383.186 814.863 383.566 815.777 383.801C816.691 384.023 817.494 384.135 818.186 384.135C819.217 384.135 820.014 383.941 820.576 383.555C821.139 383.156 821.42 382.605 821.42 381.902C821.42 381.504 821.32 381.164 821.121 380.883C820.934 380.59 820.664 380.314 820.312 380.057C819.961 379.787 819.533 379.518 819.029 379.248C818.537 378.979 817.986 378.656 817.377 378.281C816.814 377.941 816.27 377.584 815.742 377.209C815.215 376.822 814.746 376.389 814.336 375.908C813.926 375.428 813.598 374.883 813.352 374.273C813.105 373.652 812.982 372.938 812.982 372.129C812.982 371.332 813.129 370.6 813.422 369.932C813.727 369.264 814.166 368.689 814.74 368.209C815.326 367.717 816.047 367.336 816.902 367.066C817.77 366.797 818.76 366.662 819.873 366.662C820.166 366.662 820.494 366.68 820.857 366.715C821.232 366.738 821.607 366.785 821.982 366.855C822.369 366.914 822.738 367.002 823.09 367.119C823.453 367.225 823.775 367.354 824.057 367.506V370.811C823.834 370.682 823.564 370.559 823.248 370.441C822.943 370.312 822.615 370.207 822.264 370.125C821.924 370.031 821.578 369.961 821.227 369.914C820.875 369.855 820.547 369.826 820.242 369.826C819.703 369.826 819.234 369.885 818.836 370.002C818.449 370.119 818.127 370.277 817.869 370.477C817.623 370.664 817.436 370.893 817.307 371.162C817.189 371.432 817.131 371.713 817.131 372.006C817.131 372.381 817.213 372.721 817.377 373.025C817.553 373.318 817.793 373.6 818.098 373.869C818.402 374.139 818.766 374.408 819.188 374.678C819.621 374.936 820.102 375.223 820.629 375.539C821.18 375.867 821.742 376.219 822.316 376.594C822.891 376.969 823.406 377.396 823.863 377.877C824.332 378.357 824.713 378.914 825.006 379.547C825.311 380.168 825.463 380.889 825.463 381.709C825.463 382.553 825.299 383.326 824.971 384.029C824.654 384.721 824.191 385.318 823.582 385.822C822.973 386.326 822.223 386.719 821.332 387C820.453 387.27 819.457 387.404 818.344 387.404C817.465 387.404 816.562 387.311 815.637 387.123C814.723 386.936 813.879 386.654 813.105 386.279V382.658ZM828.873 377.068C828.873 375.393 829.09 373.91 829.523 372.621C829.957 371.32 830.561 370.23 831.334 369.352C832.119 368.473 833.051 367.805 834.129 367.348C835.207 366.891 836.391 366.662 837.68 366.662C838.957 366.662 840.135 366.885 841.213 367.33C842.291 367.775 843.223 368.432 844.008 369.299C844.793 370.166 845.402 371.244 845.836 372.533C846.281 373.811 846.504 375.287 846.504 376.963C846.504 378.639 846.281 380.127 845.836 381.428C845.402 382.729 844.793 383.824 844.008 384.715C843.234 385.594 842.303 386.262 841.213 386.719C840.135 387.176 838.957 387.404 837.68 387.404C836.391 387.404 835.207 387.182 834.129 386.736C833.051 386.279 832.119 385.617 831.334 384.75C830.561 383.871 829.957 382.793 829.523 381.516C829.09 380.227 828.873 378.744 828.873 377.068ZM837.68 384.1C838.348 384.1 838.951 383.965 839.49 383.695C840.041 383.414 840.51 382.986 840.896 382.412C841.295 381.826 841.6 381.082 841.811 380.18C842.033 379.277 842.145 378.205 842.145 376.963C842.145 375.721 842.033 374.66 841.811 373.781C841.6 372.891 841.295 372.164 840.896 371.602C840.51 371.027 840.041 370.611 839.49 370.354C838.951 370.084 838.348 369.949 837.68 369.949C837.023 369.949 836.42 370.09 835.869 370.371C835.318 370.641 834.844 371.068 834.445 371.654C834.059 372.229 833.754 372.967 833.531 373.869C833.32 374.76 833.215 375.826 833.215 377.068C833.215 378.311 833.32 379.377 833.531 380.268C833.754 381.146 834.059 381.873 834.445 382.447C834.844 383.01 835.318 383.426 835.869 383.695C836.42 383.965 837.023 384.1 837.68 384.1ZM851.145 367.049H854.889L855.135 369.281C855.744 368.496 856.523 367.863 857.473 367.383C858.434 366.902 859.605 366.662 860.988 366.662C862.359 366.662 863.52 366.938 864.469 367.488C865.43 368.039 866.162 368.883 866.666 370.02C866.959 369.527 867.305 369.076 867.703 368.666C868.113 368.256 868.576 367.904 869.092 367.611C869.619 367.307 870.205 367.072 870.85 366.908C871.506 366.744 872.232 366.662 873.029 366.662C875.08 366.662 876.668 367.289 877.793 368.543C878.918 369.797 879.48 371.713 879.48 374.291V387H875.227V374.432C875.227 372.908 874.934 371.783 874.348 371.057C873.762 370.318 872.936 369.949 871.869 369.949C870.955 369.949 870.105 370.154 869.32 370.564C868.535 370.963 867.867 371.566 867.316 372.375C867.352 372.68 867.381 372.99 867.404 373.307C867.428 373.623 867.439 373.951 867.439 374.291V387H863.186V374.432C863.186 372.908 862.893 371.783 862.307 371.057C861.721 370.318 860.895 369.949 859.828 369.949C858.949 369.949 858.129 370.137 857.367 370.512C856.605 370.875 855.949 371.438 855.398 372.199V387H851.145V367.049ZM883.98 376.893C883.98 375.111 884.221 373.576 884.701 372.287C885.193 370.998 885.844 369.938 886.652 369.105C887.473 368.273 888.41 367.658 889.465 367.26C890.531 366.861 891.639 366.662 892.787 366.662C893.865 366.662 894.861 366.838 895.775 367.189C896.689 367.529 897.475 368.045 898.131 368.736C898.799 369.428 899.314 370.295 899.678 371.338C900.053 372.369 900.24 373.57 900.24 374.941C900.24 375.551 900.193 376.148 900.1 376.734C900.018 377.32 899.877 377.883 899.678 378.422H888.498C888.639 379.629 888.879 380.602 889.219 381.34C889.559 382.078 889.975 382.652 890.467 383.062C890.959 383.473 891.51 383.748 892.119 383.889C892.729 384.029 893.379 384.1 894.07 384.1C894.996 384.1 895.834 383.977 896.584 383.73C897.334 383.484 898.078 383.156 898.816 382.746V386.121C897.902 386.59 896.982 386.918 896.057 387.105C895.143 387.305 894.229 387.404 893.314 387.404C891.873 387.404 890.572 387.17 889.412 386.701C888.264 386.232 887.285 385.553 886.477 384.662C885.68 383.76 885.064 382.658 884.631 381.357C884.197 380.045 883.98 378.557 883.98 376.893ZM896.021 375.557C896.139 374.713 896.156 373.945 896.074 373.254C895.992 372.562 895.805 371.971 895.512 371.479C895.23 370.986 894.85 370.611 894.369 370.354C893.889 370.084 893.314 369.949 892.646 369.949C891.393 369.949 890.379 370.43 889.605 371.391C888.844 372.34 888.434 373.729 888.375 375.557H896.021ZM915.375 382.658C916.242 383.186 917.133 383.566 918.047 383.801C918.961 384.023 919.764 384.135 920.455 384.135C921.486 384.135 922.283 383.941 922.846 383.555C923.408 383.156 923.689 382.605 923.689 381.902C923.689 381.504 923.59 381.164 923.391 380.883C923.203 380.59 922.934 380.314 922.582 380.057C922.23 379.787 921.803 379.518 921.299 379.248C920.807 378.979 920.256 378.656 919.646 378.281C919.084 377.941 918.539 377.584 918.012 377.209C917.484 376.822 917.016 376.389 916.605 375.908C916.195 375.428 915.867 374.883 915.621 374.273C915.375 373.652 915.252 372.938 915.252 372.129C915.252 371.332 915.398 370.6 915.691 369.932C915.996 369.264 916.436 368.689 917.01 368.209C917.596 367.717 918.316 367.336 919.172 367.066C920.039 366.797 921.029 366.662 922.143 366.662C922.436 366.662 922.764 366.68 923.127 366.715C923.502 366.738 923.877 366.785 924.252 366.855C924.639 366.914 925.008 367.002 925.359 367.119C925.723 367.225 926.045 367.354 926.326 367.506V370.811C926.104 370.682 925.834 370.559 925.518 370.441C925.213 370.312 924.885 370.207 924.533 370.125C924.193 370.031 923.848 369.961 923.496 369.914C923.145 369.855 922.816 369.826 922.512 369.826C921.973 369.826 921.504 369.885 921.105 370.002C920.719 370.119 920.396 370.277 920.139 370.477C919.893 370.664 919.705 370.893 919.576 371.162C919.459 371.432 919.4 371.713 919.4 372.006C919.4 372.381 919.482 372.721 919.646 373.025C919.822 373.318 920.062 373.6 920.367 373.869C920.672 374.139 921.035 374.408 921.457 374.678C921.891 374.936 922.371 375.223 922.898 375.539C923.449 375.867 924.012 376.219 924.586 376.594C925.16 376.969 925.676 377.396 926.133 377.877C926.602 378.357 926.982 378.914 927.275 379.547C927.58 380.168 927.732 380.889 927.732 381.709C927.732 382.553 927.568 383.326 927.24 384.029C926.924 384.721 926.461 385.318 925.852 385.822C925.242 386.326 924.492 386.719 923.602 387C922.723 387.27 921.727 387.404 920.613 387.404C919.734 387.404 918.832 387.311 917.906 387.123C916.992 386.936 916.148 386.654 915.375 386.279V382.658ZM933.34 370.16H931.195V367.049H933.445L933.885 361.002H937.559V367.049H941.25V370.16H937.559V381.516C937.559 381.961 937.605 382.33 937.699 382.623C937.805 382.904 937.951 383.127 938.139 383.291C938.338 383.455 938.566 383.572 938.824 383.643C939.094 383.713 939.398 383.748 939.738 383.748C940.242 383.748 940.658 383.701 940.986 383.607C941.314 383.514 941.602 383.42 941.848 383.326V386.807C941.449 386.947 940.998 387.082 940.494 387.211C940.002 387.34 939.381 387.404 938.631 387.404C937.811 387.404 937.072 387.287 936.416 387.053C935.771 386.83 935.221 386.484 934.764 386.016C934.307 385.547 933.955 384.955 933.709 384.24C933.463 383.525 933.34 382.682 933.34 381.709V370.16ZM945.996 367.049H950.25V379.6C950.25 381.123 950.502 382.254 951.006 382.992C951.51 383.73 952.336 384.1 953.484 384.1C954.258 384.1 954.984 383.93 955.664 383.59C956.344 383.238 956.936 382.699 957.439 381.973V367.049H961.693V387H957.914L957.686 384.891C957.135 385.652 956.426 386.262 955.559 386.719C954.691 387.176 953.596 387.404 952.271 387.404C950.197 387.404 948.633 386.777 947.578 385.523C946.523 384.258 945.996 382.33 945.996 379.74V367.049ZM968.232 370.16H966.176V367.049H968.232V363.146C968.232 362.186 968.367 361.312 968.637 360.527C968.906 359.73 969.305 359.051 969.832 358.488C970.371 357.926 971.039 357.492 971.836 357.188C972.633 356.871 973.559 356.713 974.613 356.713C974.883 356.713 975.158 356.725 975.439 356.748C975.732 356.771 975.961 356.801 976.125 356.836V360.246C975.738 360.07 975.328 359.982 974.895 359.982C974.109 359.982 973.506 360.217 973.084 360.686C972.662 361.143 972.451 361.793 972.451 362.637V367.049H975.668V370.16H972.451V387H968.232V370.16ZM980.432 370.16H978.375V367.049H980.432V363.146C980.432 362.186 980.566 361.312 980.836 360.527C981.105 359.73 981.504 359.051 982.031 358.488C982.57 357.926 983.238 357.492 984.035 357.188C984.832 356.871 985.758 356.713 986.812 356.713C987.082 356.713 987.357 356.725 987.639 356.748C987.932 356.771 988.16 356.801 988.324 356.836V360.246C987.938 360.07 987.527 359.982 987.094 359.982C986.309 359.982 985.705 360.217 985.283 360.686C984.861 361.143 984.65 361.793 984.65 362.637V367.049H987.867V370.16H984.65V387H980.432V370.16ZM992.051 384.152C992.051 383.684 992.127 383.256 992.279 382.869C992.443 382.471 992.672 382.131 992.965 381.85C993.258 381.568 993.609 381.352 994.02 381.199C994.441 381.047 994.904 380.971 995.408 380.971C995.936 380.971 996.41 381.047 996.832 381.199C997.254 381.352 997.611 381.568 997.904 381.85C998.209 382.131 998.438 382.471 998.59 382.869C998.754 383.256 998.836 383.684 998.836 384.152C998.836 384.633 998.754 385.066 998.59 385.453C998.438 385.84 998.209 386.174 997.904 386.455C997.611 386.736 997.254 386.953 996.832 387.105C996.41 387.258 995.936 387.334 995.408 387.334C994.904 387.334 994.441 387.258 994.02 387.105C993.609 386.953 993.258 386.736 992.965 386.455C992.672 386.174 992.443 385.84 992.279 385.453C992.127 385.066 992.051 384.633 992.051 384.152Z" fill="black"/>
<path d="M685.752 203.385H691.465L696.404 214.951L697.441 217.816H697.775L698.795 214.951L703.734 203.385H709.447V231H705.141V215.795L705.598 208.764H705.404L698.584 224.303H696.615L689.602 208.764H689.408L690.059 215.795V231H685.752V203.385ZM714.703 225.586C714.703 223.43 715.447 221.789 716.936 220.664C718.436 219.527 720.639 218.959 723.545 218.959H726.076V217.869C726.076 217.225 726 216.662 725.848 216.182C725.707 215.689 725.473 215.279 725.145 214.951C724.828 214.623 724.406 214.377 723.879 214.213C723.363 214.037 722.73 213.949 721.98 213.949C721.465 213.949 720.979 213.99 720.521 214.072C720.064 214.154 719.613 214.266 719.168 214.406C718.723 214.547 718.266 214.717 717.797 214.916C717.34 215.115 716.854 215.326 716.338 215.549V212.051C716.795 211.828 717.264 211.629 717.744 211.453C718.225 211.277 718.734 211.131 719.273 211.014C719.812 210.885 720.387 210.791 720.996 210.732C721.605 210.674 722.268 210.645 722.982 210.645C725.455 210.645 727.295 211.271 728.502 212.525C729.721 213.779 730.33 215.607 730.33 218.01V226.43C730.33 226.863 730.33 227.268 730.33 227.643C730.33 228.018 730.342 228.387 730.365 228.75C730.4 229.113 730.453 229.482 730.523 229.857C730.594 230.221 730.699 230.602 730.84 231H726.498C726.381 230.684 726.293 230.344 726.234 229.98C726.176 229.617 726.135 229.248 726.111 228.873C725.49 229.646 724.734 230.262 723.844 230.719C722.965 231.176 721.934 231.404 720.75 231.404C719.836 231.404 719.004 231.246 718.254 230.93C717.516 230.613 716.883 230.191 716.355 229.664C715.828 229.125 715.418 228.504 715.125 227.801C714.844 227.098 714.703 226.359 714.703 225.586ZM719.01 225.006C719.01 225.393 719.068 225.773 719.186 226.148C719.303 226.512 719.484 226.84 719.73 227.133C719.988 227.426 720.316 227.66 720.715 227.836C721.113 228.012 721.594 228.1 722.156 228.1C722.871 228.1 723.568 227.953 724.248 227.66C724.928 227.367 725.537 226.922 726.076 226.324V221.824H723.703C722.824 221.824 722.086 221.9 721.488 222.053C720.891 222.205 720.404 222.422 720.029 222.703C719.666 222.984 719.402 223.324 719.238 223.723C719.086 224.109 719.01 224.537 719.01 225.006ZM736.219 211.049H739.963L740.209 213.352C740.854 212.508 741.639 211.852 742.564 211.383C743.502 210.902 744.539 210.662 745.676 210.662C746.133 210.662 746.449 210.703 746.625 210.785V215.232C746.227 215.033 745.764 214.898 745.236 214.828C744.709 214.758 744.164 214.77 743.602 214.863C743.039 214.957 742.482 215.15 741.932 215.443C741.393 215.725 740.906 216.117 740.473 216.621V231H736.219V211.049ZM750.422 200.924H754.676V219.029L761.32 211.049H766.277L759.211 218.801L767.455 231H762.691L756.521 221.736L754.676 223.775V231H750.422V200.924ZM768.844 220.893C768.844 219.111 769.084 217.576 769.564 216.287C770.057 214.998 770.707 213.938 771.516 213.105C772.336 212.273 773.273 211.658 774.328 211.26C775.395 210.861 776.502 210.662 777.65 210.662C778.729 210.662 779.725 210.838 780.639 211.189C781.553 211.529 782.338 212.045 782.994 212.736C783.662 213.428 784.178 214.295 784.541 215.338C784.916 216.369 785.104 217.57 785.104 218.941C785.104 219.551 785.057 220.148 784.963 220.734C784.881 221.32 784.74 221.883 784.541 222.422H773.361C773.502 223.629 773.742 224.602 774.082 225.34C774.422 226.078 774.838 226.652 775.33 227.062C775.822 227.473 776.373 227.748 776.982 227.889C777.592 228.029 778.242 228.1 778.934 228.1C779.859 228.1 780.697 227.977 781.447 227.73C782.197 227.484 782.941 227.156 783.68 226.746V230.121C782.766 230.59 781.846 230.918 780.92 231.105C780.006 231.305 779.092 231.404 778.178 231.404C776.736 231.404 775.436 231.17 774.275 230.701C773.127 230.232 772.148 229.553 771.34 228.662C770.543 227.76 769.928 226.658 769.494 225.357C769.061 224.045 768.844 222.557 768.844 220.893ZM780.885 219.557C781.002 218.713 781.02 217.945 780.938 217.254C780.855 216.562 780.668 215.971 780.375 215.479C780.094 214.986 779.713 214.611 779.232 214.354C778.752 214.084 778.178 213.949 777.51 213.949C776.256 213.949 775.242 214.43 774.469 215.391C773.707 216.34 773.297 217.729 773.238 219.557H780.885ZM790.781 214.16H788.637V211.049H790.887L791.326 205.002H795V211.049H798.691V214.16H795V225.516C795 225.961 795.047 226.33 795.141 226.623C795.246 226.904 795.393 227.127 795.58 227.291C795.779 227.455 796.008 227.572 796.266 227.643C796.535 227.713 796.84 227.748 797.18 227.748C797.684 227.748 798.1 227.701 798.428 227.607C798.756 227.514 799.043 227.42 799.289 227.326V230.807C798.891 230.947 798.439 231.082 797.936 231.211C797.443 231.34 796.822 231.404 796.072 231.404C795.252 231.404 794.514 231.287 793.857 231.053C793.213 230.83 792.662 230.484 792.205 230.016C791.748 229.547 791.396 228.955 791.15 228.24C790.904 227.525 790.781 226.682 790.781 225.709V214.16ZM814.898 236.572C815.273 236.561 815.637 236.52 815.988 236.449C816.352 236.379 816.697 236.232 817.025 236.01C817.354 235.787 817.658 235.465 817.939 235.043C818.232 234.633 818.496 234.064 818.73 233.338L819.574 230.42H818.01L811.084 211.049H815.654L820.787 226.746H821.051L825.094 211.049H829.523L823.125 232.389C822.773 233.525 822.404 234.504 822.018 235.324C821.631 236.156 821.227 236.859 820.805 237.434C820.383 238.008 819.943 238.471 819.486 238.822C819.029 239.174 818.555 239.449 818.062 239.648C817.57 239.848 817.061 239.977 816.533 240.035C816.006 240.105 815.461 240.141 814.898 240.141V236.572ZM831.158 221.068C831.158 219.393 831.375 217.91 831.809 216.621C832.242 215.32 832.846 214.23 833.619 213.352C834.404 212.473 835.336 211.805 836.414 211.348C837.492 210.891 838.676 210.662 839.965 210.662C841.242 210.662 842.42 210.885 843.498 211.33C844.576 211.775 845.508 212.432 846.293 213.299C847.078 214.166 847.688 215.244 848.121 216.533C848.566 217.811 848.789 219.287 848.789 220.963C848.789 222.639 848.566 224.127 848.121 225.428C847.688 226.729 847.078 227.824 846.293 228.715C845.52 229.594 844.588 230.262 843.498 230.719C842.42 231.176 841.242 231.404 839.965 231.404C838.676 231.404 837.492 231.182 836.414 230.736C835.336 230.279 834.404 229.617 833.619 228.75C832.846 227.871 832.242 226.793 831.809 225.516C831.375 224.227 831.158 222.744 831.158 221.068ZM839.965 228.1C840.633 228.1 841.236 227.965 841.775 227.695C842.326 227.414 842.795 226.986 843.182 226.412C843.58 225.826 843.885 225.082 844.096 224.18C844.318 223.277 844.43 222.205 844.43 220.963C844.43 219.721 844.318 218.66 844.096 217.781C843.885 216.891 843.58 216.164 843.182 215.602C842.795 215.027 842.326 214.611 841.775 214.354C841.236 214.084 840.633 213.949 839.965 213.949C839.309 213.949 838.705 214.09 838.154 214.371C837.604 214.641 837.129 215.068 836.73 215.654C836.344 216.229 836.039 216.967 835.816 217.869C835.605 218.76 835.5 219.826 835.5 221.068C835.5 222.311 835.605 223.377 835.816 224.268C836.039 225.146 836.344 225.873 836.73 226.447C837.129 227.01 837.604 227.426 838.154 227.695C838.705 227.965 839.309 228.1 839.965 228.1ZM853.43 211.049H857.684V223.6C857.684 225.123 857.936 226.254 858.439 226.992C858.943 227.73 859.77 228.1 860.918 228.1C861.691 228.1 862.418 227.93 863.098 227.59C863.777 227.238 864.369 226.699 864.873 225.973V211.049H869.127V231H865.348L865.119 228.891C864.568 229.652 863.859 230.262 862.992 230.719C862.125 231.176 861.029 231.404 859.705 231.404C857.631 231.404 856.066 230.777 855.012 229.523C853.957 228.258 853.43 226.33 853.43 223.74V211.049ZM875.121 211.049H878.865L879.111 213.352C879.756 212.508 880.541 211.852 881.467 211.383C882.404 210.902 883.441 210.662 884.578 210.662C885.035 210.662 885.352 210.703 885.527 210.785V215.232C885.129 215.033 884.666 214.898 884.139 214.828C883.611 214.758 883.066 214.77 882.504 214.863C881.941 214.957 881.385 215.15 880.834 215.443C880.295 215.725 879.809 216.117 879.375 216.621V231H875.121V211.049ZM900.785 236.572C901.16 236.561 901.523 236.52 901.875 236.449C902.238 236.379 902.584 236.232 902.912 236.01C903.24 235.787 903.545 235.465 903.826 235.043C904.119 234.633 904.383 234.064 904.617 233.338L905.461 230.42H903.896L896.971 211.049H901.541L906.674 226.746H906.938L910.98 211.049H915.41L909.012 232.389C908.66 233.525 908.291 234.504 907.904 235.324C907.518 236.156 907.113 236.859 906.691 237.434C906.27 238.008 905.83 238.471 905.373 238.822C904.916 239.174 904.441 239.449 903.949 239.648C903.457 239.848 902.947 239.977 902.42 240.035C901.893 240.105 901.348 240.141 900.785 240.141V236.572ZM916.887 225.586C916.887 223.43 917.631 221.789 919.119 220.664C920.619 219.527 922.822 218.959 925.729 218.959H928.26V217.869C928.26 217.225 928.184 216.662 928.031 216.182C927.891 215.689 927.656 215.279 927.328 214.951C927.012 214.623 926.59 214.377 926.062 214.213C925.547 214.037 924.914 213.949 924.164 213.949C923.648 213.949 923.162 213.99 922.705 214.072C922.248 214.154 921.797 214.266 921.352 214.406C920.906 214.547 920.449 214.717 919.98 214.916C919.523 215.115 919.037 215.326 918.521 215.549V212.051C918.979 211.828 919.447 211.629 919.928 211.453C920.408 211.277 920.918 211.131 921.457 211.014C921.996 210.885 922.57 210.791 923.18 210.732C923.789 210.674 924.451 210.645 925.166 210.645C927.639 210.645 929.479 211.271 930.686 212.525C931.904 213.779 932.514 215.607 932.514 218.01V226.43C932.514 226.863 932.514 227.268 932.514 227.643C932.514 228.018 932.525 228.387 932.549 228.75C932.584 229.113 932.637 229.482 932.707 229.857C932.777 230.221 932.883 230.602 933.023 231H928.682C928.564 230.684 928.477 230.344 928.418 229.98C928.359 229.617 928.318 229.248 928.295 228.873C927.674 229.646 926.918 230.262 926.027 230.719C925.148 231.176 924.117 231.404 922.934 231.404C922.02 231.404 921.188 231.246 920.438 230.93C919.699 230.613 919.066 230.191 918.539 229.664C918.012 229.125 917.602 228.504 917.309 227.801C917.027 227.098 916.887 226.359 916.887 225.586ZM921.193 225.006C921.193 225.393 921.252 225.773 921.369 226.148C921.486 226.512 921.668 226.84 921.914 227.133C922.172 227.426 922.5 227.66 922.898 227.836C923.297 228.012 923.777 228.1 924.34 228.1C925.055 228.1 925.752 227.953 926.432 227.66C927.111 227.367 927.721 226.922 928.26 226.324V221.824H925.887C925.008 221.824 924.27 221.9 923.672 222.053C923.074 222.205 922.588 222.422 922.213 222.703C921.85 222.984 921.586 223.324 921.422 223.723C921.27 224.109 921.193 224.537 921.193 225.006ZM938.402 211.049H942.146L942.393 213.352C943.037 212.508 943.822 211.852 944.748 211.383C945.686 210.902 946.723 210.662 947.859 210.662C948.316 210.662 948.633 210.703 948.809 210.785V215.232C948.41 215.033 947.947 214.898 947.42 214.828C946.893 214.758 946.348 214.77 945.785 214.863C945.223 214.957 944.666 215.15 944.115 215.443C943.576 215.725 943.09 216.117 942.656 216.621V231H938.402V211.049ZM959.057 231.404C957.92 231.404 956.865 231.193 955.893 230.771C954.92 230.338 954.076 229.693 953.361 228.838C952.658 227.982 952.102 226.922 951.691 225.656C951.293 224.379 951.094 222.896 951.094 221.209C951.094 219.545 951.293 218.062 951.691 216.762C952.102 215.449 952.699 214.342 953.484 213.439C954.281 212.537 955.271 211.852 956.455 211.383C957.639 210.902 959.01 210.662 960.568 210.662C961.236 210.662 961.834 210.721 962.361 210.838C962.9 210.943 963.404 211.078 963.873 211.242L963.82 209.467V200.924H968.074V223.74C968.074 224.338 968.086 224.977 968.109 225.656C968.145 226.336 968.186 227.004 968.232 227.66C968.291 228.316 968.35 228.938 968.408 229.523C968.467 230.109 968.531 230.602 968.602 231H964.436C964.365 230.766 964.301 230.502 964.242 230.209C964.195 229.916 964.154 229.611 964.119 229.295C963.557 229.928 962.859 230.438 962.027 230.824C961.207 231.211 960.217 231.404 959.057 231.404ZM960.217 228.1C961.6 228.1 962.801 227.654 963.82 226.764V214.529C962.848 214.143 961.869 213.949 960.885 213.949C960.029 213.949 959.268 214.084 958.6 214.354C957.943 214.611 957.387 215.027 956.93 215.602C956.473 216.176 956.127 216.914 955.893 217.816C955.658 218.719 955.541 219.809 955.541 221.086C955.541 222.305 955.652 223.359 955.875 224.25C956.109 225.129 956.432 225.855 956.842 226.43C957.264 227.004 957.756 227.426 958.318 227.695C958.893 227.965 959.525 228.1 960.217 228.1ZM984.387 226.658C985.254 227.186 986.145 227.566 987.059 227.801C987.973 228.023 988.775 228.135 989.467 228.135C990.498 228.135 991.295 227.941 991.857 227.555C992.42 227.156 992.701 226.605 992.701 225.902C992.701 225.504 992.602 225.164 992.402 224.883C992.215 224.59 991.945 224.314 991.594 224.057C991.242 223.787 990.814 223.518 990.311 223.248C989.818 222.979 989.268 222.656 988.658 222.281C988.096 221.941 987.551 221.584 987.023 221.209C986.496 220.822 986.027 220.389 985.617 219.908C985.207 219.428 984.879 218.883 984.633 218.273C984.387 217.652 984.264 216.938 984.264 216.129C984.264 215.332 984.41 214.6 984.703 213.932C985.008 213.264 985.447 212.689 986.021 212.209C986.607 211.717 987.328 211.336 988.184 211.066C989.051 210.797 990.041 210.662 991.154 210.662C991.447 210.662 991.775 210.68 992.139 210.715C992.514 210.738 992.889 210.785 993.264 210.855C993.65 210.914 994.02 211.002 994.371 211.119C994.734 211.225 995.057 211.354 995.338 211.506V214.811C995.115 214.682 994.846 214.559 994.529 214.441C994.225 214.312 993.896 214.207 993.545 214.125C993.205 214.031 992.859 213.961 992.508 213.914C992.156 213.855 991.828 213.826 991.523 213.826C990.984 213.826 990.516 213.885 990.117 214.002C989.73 214.119 989.408 214.277 989.15 214.477C988.904 214.664 988.717 214.893 988.588 215.162C988.471 215.432 988.412 215.713 988.412 216.006C988.412 216.381 988.494 216.721 988.658 217.025C988.834 217.318 989.074 217.6 989.379 217.869C989.684 218.139 990.047 218.408 990.469 218.678C990.902 218.936 991.383 219.223 991.91 219.539C992.461 219.867 993.023 220.219 993.598 220.594C994.172 220.969 994.688 221.396 995.145 221.877C995.613 222.357 995.994 222.914 996.287 223.547C996.592 224.168 996.744 224.889 996.744 225.709C996.744 226.553 996.58 227.326 996.252 228.029C995.936 228.721 995.473 229.318 994.863 229.822C994.254 230.326 993.504 230.719 992.613 231C991.734 231.27 990.738 231.404 989.625 231.404C988.746 231.404 987.844 231.311 986.918 231.123C986.004 230.936 985.16 230.654 984.387 230.279V226.658ZM999.996 225.586C999.996 223.43 1000.74 221.789 1002.23 220.664C1003.73 219.527 1005.93 218.959 1008.84 218.959H1011.37V217.869C1011.37 217.225 1011.29 216.662 1011.14 216.182C1011 215.689 1010.77 215.279 1010.44 214.951C1010.12 214.623 1009.7 214.377 1009.17 214.213C1008.66 214.037 1008.02 213.949 1007.27 213.949C1006.76 213.949 1006.27 213.99 1005.81 214.072C1005.36 214.154 1004.91 214.266 1004.46 214.406C1004.02 214.547 1003.56 214.717 1003.09 214.916C1002.63 215.115 1002.15 215.326 1001.63 215.549V212.051C1002.09 211.828 1002.56 211.629 1003.04 211.453C1003.52 211.277 1004.03 211.131 1004.57 211.014C1005.11 210.885 1005.68 210.791 1006.29 210.732C1006.9 210.674 1007.56 210.645 1008.28 210.645C1010.75 210.645 1012.59 211.271 1013.79 212.525C1015.01 213.779 1015.62 215.607 1015.62 218.01V226.43C1015.62 226.863 1015.62 227.268 1015.62 227.643C1015.62 228.018 1015.63 228.387 1015.66 228.75C1015.69 229.113 1015.75 229.482 1015.82 229.857C1015.89 230.221 1015.99 230.602 1016.13 231H1011.79C1011.67 230.684 1011.59 230.344 1011.53 229.98C1011.47 229.617 1011.43 229.248 1011.4 228.873C1010.78 229.646 1010.03 230.262 1009.14 230.719C1008.26 231.176 1007.23 231.404 1006.04 231.404C1005.13 231.404 1004.3 231.246 1003.55 230.93C1002.81 230.613 1002.18 230.191 1001.65 229.664C1001.12 229.125 1000.71 228.504 1000.42 227.801C1000.14 227.098 999.996 226.359 999.996 225.586ZM1004.3 225.006C1004.3 225.393 1004.36 225.773 1004.48 226.148C1004.6 226.512 1004.78 226.84 1005.02 227.133C1005.28 227.426 1005.61 227.66 1006.01 227.836C1006.41 228.012 1006.89 228.1 1007.45 228.1C1008.16 228.1 1008.86 227.953 1009.54 227.66C1010.22 227.367 1010.83 226.922 1011.37 226.324V221.824H1009C1008.12 221.824 1007.38 221.9 1006.78 222.053C1006.18 222.205 1005.7 222.422 1005.32 222.703C1004.96 222.984 1004.7 223.324 1004.53 223.723C1004.38 224.109 1004.3 224.537 1004.3 225.006ZM1021.49 200.924H1025.7V231H1021.49V200.924ZM1030.2 220.893C1030.2 219.111 1030.44 217.576 1030.92 216.287C1031.41 214.998 1032.06 213.938 1032.87 213.105C1033.69 212.273 1034.62 211.658 1035.68 211.26C1036.75 210.861 1037.85 210.662 1039 210.662C1040.08 210.662 1041.08 210.838 1041.99 211.189C1042.9 211.529 1043.69 212.045 1044.35 212.736C1045.01 213.428 1045.53 214.295 1045.89 215.338C1046.27 216.369 1046.46 217.57 1046.46 218.941C1046.46 219.551 1046.41 220.148 1046.31 220.734C1046.23 221.32 1046.09 221.883 1045.89 222.422H1034.71C1034.85 223.629 1035.09 224.602 1035.43 225.34C1035.77 226.078 1036.19 226.652 1036.68 227.062C1037.17 227.473 1037.72 227.748 1038.33 227.889C1038.94 228.029 1039.59 228.1 1040.29 228.1C1041.21 228.1 1042.05 227.977 1042.8 227.73C1043.55 227.484 1044.29 227.156 1045.03 226.746V230.121C1044.12 230.59 1043.2 230.918 1042.27 231.105C1041.36 231.305 1040.44 231.404 1039.53 231.404C1038.09 231.404 1036.79 231.17 1035.63 230.701C1034.48 230.232 1033.5 229.553 1032.69 228.662C1031.89 227.76 1031.28 226.658 1030.85 225.357C1030.41 224.045 1030.2 222.557 1030.2 220.893ZM1042.24 219.557C1042.35 218.713 1042.37 217.945 1042.29 217.254C1042.21 216.562 1042.02 215.971 1041.73 215.479C1041.45 214.986 1041.06 214.611 1040.58 214.354C1040.1 214.084 1039.53 213.949 1038.86 213.949C1037.61 213.949 1036.59 214.43 1035.82 215.391C1035.06 216.34 1034.65 217.729 1034.59 219.557H1042.24ZM1051.25 228.152C1051.25 227.684 1051.33 227.256 1051.48 226.869C1051.65 226.471 1051.88 226.131 1052.17 225.85C1052.46 225.568 1052.81 225.352 1053.22 225.199C1053.64 225.047 1054.11 224.971 1054.61 224.971C1055.14 224.971 1055.61 225.047 1056.04 225.199C1056.46 225.352 1056.81 225.568 1057.11 225.85C1057.41 226.131 1057.64 226.471 1057.79 226.869C1057.96 227.256 1058.04 227.684 1058.04 228.152C1058.04 228.633 1057.96 229.066 1057.79 229.453C1057.64 229.84 1057.41 230.174 1057.11 230.455C1056.81 230.736 1056.46 230.953 1056.04 231.105C1055.61 231.258 1055.14 231.334 1054.61 231.334C1054.11 231.334 1053.64 231.258 1053.22 231.105C1052.81 230.953 1052.46 230.736 1052.17 230.455C1051.88 230.174 1051.65 229.84 1051.48 229.453C1051.33 229.066 1051.25 228.633 1051.25 228.152Z" fill="black"/>
<path d="M715.652 516.385H721.365L726.305 527.951L727.342 530.816H727.676L728.695 527.951L733.635 516.385H739.348V544H735.041V528.795L735.498 521.764H735.305L728.484 537.303H726.516L719.502 521.764H719.309L719.959 528.795V544H715.652V516.385ZM744.604 538.586C744.604 536.43 745.348 534.789 746.836 533.664C748.336 532.527 750.539 531.959 753.445 531.959H755.977V530.869C755.977 530.225 755.9 529.662 755.748 529.182C755.607 528.689 755.373 528.279 755.045 527.951C754.729 527.623 754.307 527.377 753.779 527.213C753.264 527.037 752.631 526.949 751.881 526.949C751.365 526.949 750.879 526.99 750.422 527.072C749.965 527.154 749.514 527.266 749.068 527.406C748.623 527.547 748.166 527.717 747.697 527.916C747.24 528.115 746.754 528.326 746.238 528.549V525.051C746.695 524.828 747.164 524.629 747.645 524.453C748.125 524.277 748.635 524.131 749.174 524.014C749.713 523.885 750.287 523.791 750.896 523.732C751.506 523.674 752.168 523.645 752.883 523.645C755.355 523.645 757.195 524.271 758.402 525.525C759.621 526.779 760.23 528.607 760.23 531.01V539.43C760.23 539.863 760.23 540.268 760.23 540.643C760.23 541.018 760.242 541.387 760.266 541.75C760.301 542.113 760.354 542.482 760.424 542.857C760.494 543.221 760.6 543.602 760.74 544H756.398C756.281 543.684 756.193 543.344 756.135 542.98C756.076 542.617 756.035 542.248 756.012 541.873C755.391 542.646 754.635 543.262 753.744 543.719C752.865 544.176 751.834 544.404 750.65 544.404C749.736 544.404 748.904 544.246 748.154 543.93C747.416 543.613 746.783 543.191 746.256 542.664C745.729 542.125 745.318 541.504 745.025 540.801C744.744 540.098 744.604 539.359 744.604 538.586ZM748.91 538.006C748.91 538.393 748.969 538.773 749.086 539.148C749.203 539.512 749.385 539.84 749.631 540.133C749.889 540.426 750.217 540.66 750.615 540.836C751.014 541.012 751.494 541.1 752.057 541.1C752.771 541.1 753.469 540.953 754.148 540.66C754.828 540.367 755.438 539.922 755.977 539.324V534.824H753.604C752.725 534.824 751.986 534.9 751.389 535.053C750.791 535.205 750.305 535.422 749.93 535.703C749.566 535.984 749.303 536.324 749.139 536.723C748.986 537.109 748.91 537.537 748.91 538.006ZM766.119 513.924H770.373V532.029L777.018 524.049H781.975L774.908 531.801L783.152 544H778.389L772.219 534.736L770.373 536.775V544H766.119V513.924ZM784.541 533.893C784.541 532.111 784.781 530.576 785.262 529.287C785.754 527.998 786.404 526.938 787.213 526.105C788.033 525.273 788.971 524.658 790.025 524.26C791.092 523.861 792.199 523.662 793.348 523.662C794.426 523.662 795.422 523.838 796.336 524.189C797.25 524.529 798.035 525.045 798.691 525.736C799.359 526.428 799.875 527.295 800.238 528.338C800.613 529.369 800.801 530.57 800.801 531.941C800.801 532.551 800.754 533.148 800.66 533.734C800.578 534.32 800.438 534.883 800.238 535.422H789.059C789.199 536.629 789.439 537.602 789.779 538.34C790.119 539.078 790.535 539.652 791.027 540.062C791.52 540.473 792.07 540.748 792.68 540.889C793.289 541.029 793.939 541.1 794.631 541.1C795.557 541.1 796.395 540.977 797.145 540.73C797.895 540.484 798.639 540.156 799.377 539.746V543.121C798.463 543.59 797.543 543.918 796.617 544.105C795.703 544.305 794.789 544.404 793.875 544.404C792.434 544.404 791.133 544.17 789.973 543.701C788.824 543.232 787.846 542.553 787.037 541.662C786.24 540.76 785.625 539.658 785.191 538.357C784.758 537.045 784.541 535.557 784.541 533.893ZM796.582 532.557C796.699 531.713 796.717 530.945 796.635 530.254C796.553 529.562 796.365 528.971 796.072 528.479C795.791 527.986 795.41 527.611 794.93 527.354C794.449 527.084 793.875 526.949 793.207 526.949C791.953 526.949 790.939 527.43 790.166 528.391C789.404 529.34 788.994 530.729 788.936 532.557H796.582ZM815.936 539.658C816.803 540.186 817.693 540.566 818.607 540.801C819.521 541.023 820.324 541.135 821.016 541.135C822.047 541.135 822.844 540.941 823.406 540.555C823.969 540.156 824.25 539.605 824.25 538.902C824.25 538.504 824.15 538.164 823.951 537.883C823.764 537.59 823.494 537.314 823.143 537.057C822.791 536.787 822.363 536.518 821.859 536.248C821.367 535.979 820.816 535.656 820.207 535.281C819.645 534.941 819.1 534.584 818.572 534.209C818.045 533.822 817.576 533.389 817.166 532.908C816.756 532.428 816.428 531.883 816.182 531.273C815.936 530.652 815.812 529.938 815.812 529.129C815.812 528.332 815.959 527.6 816.252 526.932C816.557 526.264 816.996 525.689 817.57 525.209C818.156 524.717 818.877 524.336 819.732 524.066C820.6 523.797 821.59 523.662 822.703 523.662C822.996 523.662 823.324 523.68 823.688 523.715C824.062 523.738 824.438 523.785 824.812 523.855C825.199 523.914 825.568 524.002 825.92 524.119C826.283 524.225 826.605 524.354 826.887 524.506V527.811C826.664 527.682 826.395 527.559 826.078 527.441C825.773 527.312 825.445 527.207 825.094 527.125C824.754 527.031 824.408 526.961 824.057 526.914C823.705 526.855 823.377 526.826 823.072 526.826C822.533 526.826 822.064 526.885 821.666 527.002C821.279 527.119 820.957 527.277 820.699 527.477C820.453 527.664 820.266 527.893 820.137 528.162C820.02 528.432 819.961 528.713 819.961 529.006C819.961 529.381 820.043 529.721 820.207 530.025C820.383 530.318 820.623 530.6 820.928 530.869C821.232 531.139 821.596 531.408 822.018 531.678C822.451 531.936 822.932 532.223 823.459 532.539C824.01 532.867 824.572 533.219 825.146 533.594C825.721 533.969 826.236 534.396 826.693 534.877C827.162 535.357 827.543 535.914 827.836 536.547C828.141 537.168 828.293 537.889 828.293 538.709C828.293 539.553 828.129 540.326 827.801 541.029C827.484 541.721 827.021 542.318 826.412 542.822C825.803 543.326 825.053 543.719 824.162 544C823.283 544.27 822.287 544.404 821.174 544.404C820.295 544.404 819.393 544.311 818.467 544.123C817.553 543.936 816.709 543.654 815.936 543.279V539.658ZM831.703 534.068C831.703 532.393 831.92 530.91 832.354 529.621C832.787 528.32 833.391 527.23 834.164 526.352C834.949 525.473 835.881 524.805 836.959 524.348C838.037 523.891 839.221 523.662 840.51 523.662C841.787 523.662 842.965 523.885 844.043 524.33C845.121 524.775 846.053 525.432 846.838 526.299C847.623 527.166 848.232 528.244 848.666 529.533C849.111 530.811 849.334 532.287 849.334 533.963C849.334 535.639 849.111 537.127 848.666 538.428C848.232 539.729 847.623 540.824 846.838 541.715C846.064 542.594 845.133 543.262 844.043 543.719C842.965 544.176 841.787 544.404 840.51 544.404C839.221 544.404 838.037 544.182 836.959 543.736C835.881 543.279 834.949 542.617 834.164 541.75C833.391 540.871 832.787 539.793 832.354 538.516C831.92 537.227 831.703 535.744 831.703 534.068ZM840.51 541.1C841.178 541.1 841.781 540.965 842.32 540.695C842.871 540.414 843.34 539.986 843.727 539.412C844.125 538.826 844.43 538.082 844.641 537.18C844.863 536.277 844.975 535.205 844.975 533.963C844.975 532.721 844.863 531.66 844.641 530.781C844.43 529.891 844.125 529.164 843.727 528.602C843.34 528.027 842.871 527.611 842.32 527.354C841.781 527.084 841.178 526.949 840.51 526.949C839.854 526.949 839.25 527.09 838.699 527.371C838.148 527.641 837.674 528.068 837.275 528.654C836.889 529.229 836.584 529.967 836.361 530.869C836.15 531.76 836.045 532.826 836.045 534.068C836.045 535.311 836.15 536.377 836.361 537.268C836.584 538.146 836.889 538.873 837.275 539.447C837.674 540.01 838.148 540.426 838.699 540.695C839.25 540.965 839.854 541.1 840.51 541.1ZM853.975 524.049H857.719L857.965 526.281C858.574 525.496 859.354 524.863 860.303 524.383C861.264 523.902 862.436 523.662 863.818 523.662C865.189 523.662 866.35 523.938 867.299 524.488C868.26 525.039 868.992 525.883 869.496 527.02C869.789 526.527 870.135 526.076 870.533 525.666C870.943 525.256 871.406 524.904 871.922 524.611C872.449 524.307 873.035 524.072 873.68 523.908C874.336 523.744 875.062 523.662 875.859 523.662C877.91 523.662 879.498 524.289 880.623 525.543C881.748 526.797 882.311 528.713 882.311 531.291V544H878.057V531.432C878.057 529.908 877.764 528.783 877.178 528.057C876.592 527.318 875.766 526.949 874.699 526.949C873.785 526.949 872.936 527.154 872.15 527.564C871.365 527.963 870.697 528.566 870.146 529.375C870.182 529.68 870.211 529.99 870.234 530.307C870.258 530.623 870.27 530.951 870.27 531.291V544H866.016V531.432C866.016 529.908 865.723 528.783 865.137 528.057C864.551 527.318 863.725 526.949 862.658 526.949C861.779 526.949 860.959 527.137 860.197 527.512C859.436 527.875 858.779 528.438 858.229 529.199V544H853.975V524.049ZM886.811 533.893C886.811 532.111 887.051 530.576 887.531 529.287C888.023 527.998 888.674 526.938 889.482 526.105C890.303 525.273 891.24 524.658 892.295 524.26C893.361 523.861 894.469 523.662 895.617 523.662C896.695 523.662 897.691 523.838 898.605 524.189C899.52 524.529 900.305 525.045 900.961 525.736C901.629 526.428 902.145 527.295 902.508 528.338C902.883 529.369 903.07 530.57 903.07 531.941C903.07 532.551 903.023 533.148 902.93 533.734C902.848 534.32 902.707 534.883 902.508 535.422H891.328C891.469 536.629 891.709 537.602 892.049 538.34C892.389 539.078 892.805 539.652 893.297 540.062C893.789 540.473 894.34 540.748 894.949 540.889C895.559 541.029 896.209 541.1 896.9 541.1C897.826 541.1 898.664 540.977 899.414 540.73C900.164 540.484 900.908 540.156 901.646 539.746V543.121C900.732 543.59 899.812 543.918 898.887 544.105C897.973 544.305 897.059 544.404 896.145 544.404C894.703 544.404 893.402 544.17 892.242 543.701C891.094 543.232 890.115 542.553 889.307 541.662C888.51 540.76 887.895 539.658 887.461 538.357C887.027 537.045 886.811 535.557 886.811 533.893ZM898.852 532.557C898.969 531.713 898.986 530.945 898.904 530.254C898.822 529.562 898.635 528.971 898.342 528.479C898.061 527.986 897.68 527.611 897.199 527.354C896.719 527.084 896.145 526.949 895.477 526.949C894.223 526.949 893.209 527.43 892.436 528.391C891.674 529.34 891.264 530.729 891.205 532.557H898.852ZM918.662 524.049H922.406L922.652 526.281C923.262 525.496 924.041 524.863 924.99 524.383C925.951 523.902 927.123 523.662 928.506 523.662C929.877 523.662 931.037 523.938 931.986 524.488C932.947 525.039 933.68 525.883 934.184 527.02C934.477 526.527 934.822 526.076 935.221 525.666C935.631 525.256 936.094 524.904 936.609 524.611C937.137 524.307 937.723 524.072 938.367 523.908C939.023 523.744 939.75 523.662 940.547 523.662C942.598 523.662 944.186 524.289 945.311 525.543C946.436 526.797 946.998 528.713 946.998 531.291V544H942.744V531.432C942.744 529.908 942.451 528.783 941.865 528.057C941.279 527.318 940.453 526.949 939.387 526.949C938.473 526.949 937.623 527.154 936.838 527.564C936.053 527.963 935.385 528.566 934.834 529.375C934.869 529.68 934.898 529.99 934.922 530.307C934.945 530.623 934.957 530.951 934.957 531.291V544H930.703V531.432C930.703 529.908 930.41 528.783 929.824 528.057C929.238 527.318 928.412 526.949 927.346 526.949C926.467 526.949 925.646 527.137 924.885 527.512C924.123 527.875 923.467 528.438 922.916 529.199V544H918.662V524.049ZM951.656 534.068C951.656 532.393 951.873 530.91 952.307 529.621C952.74 528.32 953.344 527.23 954.117 526.352C954.902 525.473 955.834 524.805 956.912 524.348C957.99 523.891 959.174 523.662 960.463 523.662C961.74 523.662 962.918 523.885 963.996 524.33C965.074 524.775 966.006 525.432 966.791 526.299C967.576 527.166 968.186 528.244 968.619 529.533C969.064 530.811 969.287 532.287 969.287 533.963C969.287 535.639 969.064 537.127 968.619 538.428C968.186 539.729 967.576 540.824 966.791 541.715C966.018 542.594 965.086 543.262 963.996 543.719C962.918 544.176 961.74 544.404 960.463 544.404C959.174 544.404 957.99 544.182 956.912 543.736C955.834 543.279 954.902 542.617 954.117 541.75C953.344 540.871 952.74 539.793 952.307 538.516C951.873 537.227 951.656 535.744 951.656 534.068ZM960.463 541.1C961.131 541.1 961.734 540.965 962.273 540.695C962.824 540.414 963.293 539.986 963.68 539.412C964.078 538.826 964.383 538.082 964.594 537.18C964.816 536.277 964.928 535.205 964.928 533.963C964.928 532.721 964.816 531.66 964.594 530.781C964.383 529.891 964.078 529.164 963.68 528.602C963.293 528.027 962.824 527.611 962.273 527.354C961.734 527.084 961.131 526.949 960.463 526.949C959.807 526.949 959.203 527.09 958.652 527.371C958.102 527.641 957.627 528.068 957.229 528.654C956.842 529.229 956.537 529.967 956.314 530.869C956.104 531.76 955.998 532.826 955.998 534.068C955.998 535.311 956.104 536.377 956.314 537.268C956.537 538.146 956.842 538.873 957.229 539.447C957.627 540.01 958.102 540.426 958.652 540.695C959.203 540.965 959.807 541.1 960.463 541.1ZM973.928 524.049H977.672L977.918 526.281C978.527 525.496 979.307 524.863 980.256 524.383C981.217 523.902 982.389 523.662 983.771 523.662C985.822 523.662 987.41 524.289 988.535 525.543C989.66 526.797 990.223 528.713 990.223 531.291V544H985.969V531.432C985.969 529.908 985.676 528.783 985.09 528.057C984.504 527.318 983.678 526.949 982.611 526.949C981.732 526.949 980.912 527.137 980.15 527.512C979.389 527.875 978.732 528.438 978.182 529.199V544H973.928V524.049ZM994.705 533.893C994.705 532.111 994.945 530.576 995.426 529.287C995.918 527.998 996.568 526.938 997.377 526.105C998.197 525.273 999.135 524.658 1000.19 524.26C1001.26 523.861 1002.36 523.662 1003.51 523.662C1004.59 523.662 1005.59 523.838 1006.5 524.189C1007.41 524.529 1008.2 525.045 1008.86 525.736C1009.52 526.428 1010.04 527.295 1010.4 528.338C1010.78 529.369 1010.96 530.57 1010.96 531.941C1010.96 532.551 1010.92 533.148 1010.82 533.734C1010.74 534.32 1010.6 534.883 1010.4 535.422H999.223C999.363 536.629 999.604 537.602 999.943 538.34C1000.28 539.078 1000.7 539.652 1001.19 540.062C1001.68 540.473 1002.23 540.748 1002.84 540.889C1003.45 541.029 1004.1 541.1 1004.79 541.1C1005.72 541.1 1006.56 540.977 1007.31 540.73C1008.06 540.484 1008.8 540.156 1009.54 539.746V543.121C1008.63 543.59 1007.71 543.918 1006.78 544.105C1005.87 544.305 1004.95 544.404 1004.04 544.404C1002.6 544.404 1001.3 544.17 1000.14 543.701C998.988 543.232 998.01 542.553 997.201 541.662C996.404 540.76 995.789 539.658 995.355 538.357C994.922 537.045 994.705 535.557 994.705 533.893ZM1006.75 532.557C1006.86 531.713 1006.88 530.945 1006.8 530.254C1006.72 529.562 1006.53 528.971 1006.24 528.479C1005.96 527.986 1005.57 527.611 1005.09 527.354C1004.61 527.084 1004.04 526.949 1003.37 526.949C1002.12 526.949 1001.1 527.43 1000.33 528.391C999.568 529.34 999.158 530.729 999.1 532.557H1006.75ZM1016.5 549.572C1016.88 549.561 1017.24 549.52 1017.59 549.449C1017.96 549.379 1018.3 549.232 1018.63 549.01C1018.96 548.787 1019.26 548.465 1019.54 548.043C1019.84 547.633 1020.1 547.064 1020.33 546.338L1021.18 543.42H1019.61L1012.69 524.049H1017.26L1022.39 539.746H1022.65L1026.7 524.049H1031.13L1024.73 545.389C1024.38 546.525 1024.01 547.504 1023.62 548.324C1023.23 549.156 1022.83 549.859 1022.41 550.434C1021.99 551.008 1021.55 551.471 1021.09 551.822C1020.63 552.174 1020.16 552.449 1019.67 552.648C1019.17 552.848 1018.66 552.977 1018.14 553.035C1017.61 553.105 1017.06 553.141 1016.5 553.141V549.572Z" fill="#0F0F0F"/>
<path d="M309 600C309 612.722 298.907 623 286.5 623C274.093 623 264 612.722 264 600C264 587.277 274.093 577 286.5 577C298.907 577 309 587.277 309 600Z" fill="white" stroke="#D4AF37" stroke-width="2"/>
<line x1="144" y1="454.875" x2="434" y2="454.875" stroke="white" stroke-width="0.25"/>
<path d="M1203.71 241.707C1204.1 241.317 1204.1 240.683 1203.71 240.293L1197.34 233.929C1196.95 233.538 1196.32 233.538 1195.93 233.929C1195.54 234.319 1195.54 234.953 1195.93 235.343L1201.59 241L1195.93 246.657C1195.54 247.047 1195.54 247.681 1195.93 248.071C1196.32 248.462 1196.95 248.462 1197.34 248.071L1203.71 241.707ZM457 242H1203V240H457V242Z" fill="black"/>
<path d="M1203.71 396.707C1204.1 396.317 1204.1 395.683 1203.71 395.293L1197.34 388.929C1196.95 388.538 1196.32 388.538 1195.93 388.929C1195.54 389.319 1195.54 389.953 1195.93 390.343L1201.59 396L1195.93 401.657C1195.54 402.047 1195.54 402.681 1195.93 403.071C1196.32 403.462 1196.95 403.462 1197.34 403.071L1203.71 396.707ZM457 397H1203V395H457V397Z" fill="black"/>
<path d="M1203.71 553.707C1204.1 553.317 1204.1 552.683 1203.71 552.293L1197.34 545.929C1196.95 545.538 1196.32 545.538 1195.93 545.929C1195.54 546.319 1195.54 546.953 1195.93 547.343L1201.59 553L1195.93 558.657C1195.54 559.047 1195.54 559.681 1195.93 560.071C1196.32 560.462 1196.95 560.462 1197.34 560.071L1203.71 553.707ZM457 554H1203V552H457V554Z" fill="black"/>
</svg>
