<svg width="347" height="74" viewBox="0 0 347 74" fill="none" xmlns="http://www.w3.org/2000/svg">
<rect width="315" height="74" fill="#7D4CDB"/>
<rect x="5.625" y="15.625" width="63.75" height="55.75" fill="#7D4CDB" stroke="white" stroke-width="0.75" stroke-linejoin="round"/>
<line x1="59.5" y1="30" x2="59.5" y2="71" stroke="white"/>
<rect x="15" y="55" width="44" height="1" fill="white"/>
<rect x="15" y="37" width="44" height="1" fill="white"/>
<rect x="15" y="51" width="44" height="1" fill="white"/>
<rect x="15" y="65" width="44" height="1" fill="white"/>
<rect x="15" y="44" width="44" height="1" fill="white"/>
<rect x="15" y="40" width="44" height="1" fill="white"/>
<rect x="15" y="58" width="44" height="1" fill="white"/>
<rect x="15" y="70" width="44" height="1" fill="white"/>
<rect x="15" y="30" width="44" height="1" fill="white"/>
<rect x="15" y="62" width="44" height="1" fill="white"/>
<rect x="15" y="44" width="44" height="1" fill="white"/>
<rect x="15" y="30" width="44" height="1" fill="white"/>
<rect x="15" y="47" width="44" height="1" fill="white"/>
<rect x="15" y="68" width="44" height="1" fill="white"/>
<rect x="15" y="33" width="44" height="1" fill="white"/>
<line x1="15.5" y1="30" x2="15.5" y2="71" stroke="white"/>
<path d="M182.918 45.3867C181.242 45.3867 179.707 45.1055 178.312 44.543C176.93 43.9688 175.74 43.0957 174.744 41.9238C173.76 40.752 172.992 39.2637 172.441 37.459C171.891 35.6543 171.615 33.5098 171.615 31.0254C171.615 28.6348 171.873 26.5605 172.389 24.8027C172.904 23.0449 173.631 21.5859 174.568 20.4258C175.506 19.2656 176.625 18.4043 177.926 17.8418C179.238 17.2793 180.686 16.998 182.268 16.998C182.959 16.998 183.633 17.0508 184.289 17.1562C184.957 17.25 185.584 17.3906 186.17 17.5781C186.756 17.7539 187.283 17.9648 187.752 18.2109C188.221 18.4453 188.607 18.7031 188.912 18.9844V23.2559C188.057 22.377 187.107 21.7207 186.064 21.2871C185.021 20.8535 183.949 20.6367 182.848 20.6367C181.816 20.6367 180.879 20.8359 180.035 21.2344C179.203 21.6211 178.488 22.2363 177.891 23.0801C177.293 23.9238 176.83 25.0078 176.502 26.332C176.174 27.6445 176.01 29.2207 176.01 31.0605C176.01 32.9355 176.18 34.5469 176.52 35.8945C176.859 37.2422 177.346 38.3496 177.979 39.2168C178.623 40.084 179.396 40.7227 180.299 41.1328C181.213 41.543 182.238 41.748 183.375 41.748C183.82 41.748 184.277 41.7188 184.746 41.6602C185.215 41.5898 185.66 41.4785 186.082 41.3262V33.5918H181.477V30.0586H190.389V42.9609C189.439 43.7578 188.314 44.3613 187.014 44.7715C185.713 45.1816 184.348 45.3867 182.918 45.3867ZM194.52 39.5859C194.52 37.4297 195.264 35.7891 196.752 34.6641C198.252 33.5273 200.455 32.959 203.361 32.959H205.893V31.8691C205.893 31.2246 205.816 30.6621 205.664 30.1816C205.523 29.6895 205.289 29.2793 204.961 28.9512C204.645 28.623 204.223 28.377 203.695 28.2129C203.18 28.0371 202.547 27.9492 201.797 27.9492C201.281 27.9492 200.795 27.9902 200.338 28.0723C199.881 28.1543 199.43 28.2656 198.984 28.4062C198.539 28.5469 198.082 28.7168 197.613 28.916C197.156 29.1152 196.67 29.3262 196.154 29.5488V26.0508C196.611 25.8281 197.08 25.6289 197.561 25.4531C198.041 25.2773 198.551 25.1309 199.09 25.0137C199.629 24.8848 200.203 24.791 200.812 24.7324C201.422 24.6738 202.084 24.6445 202.799 24.6445C205.271 24.6445 207.111 25.2715 208.318 26.5254C209.537 27.7793 210.146 29.6074 210.146 32.0098V40.4297C210.146 40.8633 210.146 41.2676 210.146 41.6426C210.146 42.0176 210.158 42.3867 210.182 42.75C210.217 43.1133 210.27 43.4824 210.34 43.8574C210.41 44.2207 210.516 44.6016 210.656 45H206.314C206.197 44.6836 206.109 44.3438 206.051 43.9805C205.992 43.6172 205.951 43.248 205.928 42.873C205.307 43.6465 204.551 44.2617 203.66 44.7188C202.781 45.1758 201.75 45.4043 200.566 45.4043C199.652 45.4043 198.82 45.2461 198.07 44.9297C197.332 44.6133 196.699 44.1914 196.172 43.6641C195.645 43.125 195.234 42.5039 194.941 41.8008C194.66 41.0977 194.52 40.3594 194.52 39.5859ZM198.826 39.0059C198.826 39.3926 198.885 39.7734 199.002 40.1484C199.119 40.5117 199.301 40.8398 199.547 41.1328C199.805 41.4258 200.133 41.6602 200.531 41.8359C200.93 42.0117 201.41 42.0996 201.973 42.0996C202.688 42.0996 203.385 41.9531 204.064 41.6602C204.744 41.3672 205.354 40.9219 205.893 40.3242V35.8242H203.52C202.641 35.8242 201.902 35.9004 201.305 36.0527C200.707 36.2051 200.221 36.4219 199.846 36.7031C199.482 36.9844 199.219 37.3242 199.055 37.7227C198.902 38.1094 198.826 38.5371 198.826 39.0059ZM216.035 25.0488H219.779L220.025 27.3516C220.67 26.5078 221.455 25.8516 222.381 25.3828C223.318 24.9023 224.355 24.6621 225.492 24.6621C225.949 24.6621 226.266 24.7031 226.441 24.7852V29.2324C226.043 29.0332 225.58 28.8984 225.053 28.8281C224.525 28.7578 223.98 28.7695 223.418 28.8633C222.855 28.957 222.299 29.1504 221.748 29.4434C221.209 29.7246 220.723 30.1172 220.289 30.6211V45H216.035V25.0488ZM228.727 39.5859C228.727 37.4297 229.471 35.7891 230.959 34.6641C232.459 33.5273 234.662 32.959 237.568 32.959H240.1V31.8691C240.1 31.2246 240.023 30.6621 239.871 30.1816C239.73 29.6895 239.496 29.2793 239.168 28.9512C238.852 28.623 238.43 28.377 237.902 28.2129C237.387 28.0371 236.754 27.9492 236.004 27.9492C235.488 27.9492 235.002 27.9902 234.545 28.0723C234.088 28.1543 233.637 28.2656 233.191 28.4062C232.746 28.5469 232.289 28.7168 231.82 28.916C231.363 29.1152 230.877 29.3262 230.361 29.5488V26.0508C230.818 25.8281 231.287 25.6289 231.768 25.4531C232.248 25.2773 232.758 25.1309 233.297 25.0137C233.836 24.8848 234.41 24.791 235.02 24.7324C235.629 24.6738 236.291 24.6445 237.006 24.6445C239.479 24.6445 241.318 25.2715 242.525 26.5254C243.744 27.7793 244.354 29.6074 244.354 32.0098V40.4297C244.354 40.8633 244.354 41.2676 244.354 41.6426C244.354 42.0176 244.365 42.3867 244.389 42.75C244.424 43.1133 244.477 43.4824 244.547 43.8574C244.617 44.2207 244.723 44.6016 244.863 45H240.521C240.404 44.6836 240.316 44.3438 240.258 43.9805C240.199 43.6172 240.158 43.248 240.135 42.873C239.514 43.6465 238.758 44.2617 237.867 44.7188C236.988 45.1758 235.957 45.4043 234.773 45.4043C233.859 45.4043 233.027 45.2461 232.277 44.9297C231.539 44.6133 230.906 44.1914 230.379 43.6641C229.852 43.125 229.441 42.5039 229.148 41.8008C228.867 41.0977 228.727 40.3594 228.727 39.5859ZM233.033 39.0059C233.033 39.3926 233.092 39.7734 233.209 40.1484C233.326 40.5117 233.508 40.8398 233.754 41.1328C234.012 41.4258 234.34 41.6602 234.738 41.8359C235.137 42.0117 235.617 42.0996 236.18 42.0996C236.895 42.0996 237.592 41.9531 238.271 41.6602C238.951 41.3672 239.561 40.9219 240.1 40.3242V35.8242H237.727C236.848 35.8242 236.109 35.9004 235.512 36.0527C234.914 36.2051 234.428 36.4219 234.053 36.7031C233.689 36.9844 233.426 37.3242 233.262 37.7227C233.109 38.1094 233.033 38.5371 233.033 39.0059ZM249.135 48.5332C249.135 47.4902 249.416 46.6465 249.979 46.002C250.553 45.3691 251.309 44.8652 252.246 44.4902C251.707 44.1504 251.285 43.6875 250.98 43.1016C250.676 42.5039 250.518 41.877 250.506 41.2207C250.494 40.459 250.717 39.7383 251.174 39.0586C251.643 38.3672 252.305 37.8223 253.16 37.4238C252.059 36.8613 251.18 36.0762 250.523 35.0684C249.867 34.0605 249.539 32.8477 249.539 31.4297C249.539 30.3398 249.75 29.3789 250.172 28.5469C250.594 27.7031 251.156 26.9941 251.859 26.4199C252.574 25.8457 253.4 25.4121 254.338 25.1191C255.287 24.8145 256.289 24.6621 257.344 24.6621C258.375 24.6621 259.342 24.7969 260.244 25.0664C261.158 25.3242 261.973 25.7051 262.688 26.209C263.016 25.6465 263.461 25.248 264.023 25.0137C264.586 24.7793 265.201 24.6621 265.869 24.6621H267.574V27.8262H266.607C266.268 27.8262 265.916 27.8555 265.553 27.9141C265.189 27.9727 264.855 28.0664 264.551 28.1953C264.855 28.6875 265.084 29.2324 265.236 29.8301C265.4 30.416 265.482 31.0488 265.482 31.7285C265.482 32.8184 265.271 33.7793 264.85 34.6113C264.439 35.4434 263.877 36.1465 263.162 36.7207C262.447 37.2832 261.615 37.7109 260.666 38.0039C259.729 38.2852 258.732 38.4258 257.678 38.4258C257.42 38.4258 257.162 38.4199 256.904 38.4082C256.658 38.3848 256.418 38.3613 256.184 38.3379C255.645 38.4434 255.229 38.6602 254.936 38.9883C254.654 39.3047 254.514 39.7441 254.514 40.3066C254.514 40.8223 254.631 41.2266 254.865 41.5195C255.111 41.8125 255.428 42.0293 255.814 42.1699C256.201 42.3105 256.629 42.3984 257.098 42.4336C257.578 42.457 258.053 42.4688 258.521 42.4688C259.248 42.4688 259.963 42.4922 260.666 42.5391C261.381 42.5742 262.055 42.6621 262.688 42.8027C263.32 42.9316 263.9 43.1191 264.428 43.3652C264.967 43.5996 265.43 43.9219 265.816 44.332C266.215 44.7422 266.52 45.2461 266.73 45.8438C266.953 46.4414 267.064 47.1562 267.064 47.9883C267.064 48.8906 266.871 49.7168 266.484 50.4668C266.109 51.2168 265.541 51.8613 264.779 52.4004C264.018 52.9512 263.068 53.3789 261.932 53.6836C260.807 53.9883 259.488 54.1406 257.977 54.1406C256.453 54.1406 255.135 54 254.021 53.7188C252.92 53.4492 252.006 53.0625 251.279 52.5586C250.553 52.0664 250.014 51.4746 249.662 50.7832C249.311 50.1035 249.135 49.3535 249.135 48.5332ZM257.484 35.3145C258.727 35.3145 259.682 35.0215 260.35 34.4355C261.029 33.8379 261.369 32.8828 261.369 31.5703C261.369 30.2578 261.023 29.2969 260.332 28.6875C259.641 28.0781 258.709 27.7734 257.537 27.7734C256.295 27.7734 255.34 28.084 254.672 28.7051C254.004 29.3145 253.67 30.2754 253.67 31.5879C253.67 32.2441 253.758 32.8125 253.934 33.293C254.109 33.7617 254.361 34.1484 254.689 34.4531C255.018 34.7461 255.416 34.9629 255.885 35.1035C256.354 35.2441 256.887 35.3145 257.484 35.3145ZM253.266 48.0059C253.266 48.4277 253.354 48.8203 253.529 49.1836C253.705 49.5586 253.986 49.8809 254.373 50.1504C254.771 50.4316 255.281 50.6484 255.902 50.8008C256.535 50.9648 257.309 51.0469 258.223 51.0469C259.816 51.0469 261 50.7832 261.773 50.2559C262.559 49.7285 262.951 49.0254 262.951 48.1465C262.951 47.584 262.805 47.1387 262.512 46.8105C262.23 46.4824 261.844 46.2305 261.352 46.0547C260.871 45.8906 260.314 45.7852 259.682 45.7383C259.049 45.6914 258.393 45.668 257.713 45.668C257.35 45.668 256.939 45.6562 256.482 45.6328C256.037 45.6211 255.615 45.6035 255.217 45.5801C254.771 45.6738 254.42 45.8086 254.162 45.9844C253.904 46.1719 253.711 46.3711 253.582 46.582C253.453 46.8047 253.365 47.0391 253.318 47.2852C253.283 47.5312 253.266 47.7715 253.266 48.0059ZM270.158 35.0684C270.158 33.3926 270.375 31.9102 270.809 30.6211C271.242 29.3203 271.846 28.2305 272.619 27.3516C273.404 26.4727 274.336 25.8047 275.414 25.3477C276.492 24.8906 277.676 24.6621 278.965 24.6621C280.242 24.6621 281.42 24.8848 282.498 25.3301C283.576 25.7754 284.508 26.4316 285.293 27.2988C286.078 28.166 286.688 29.2441 287.121 30.5332C287.566 31.8105 287.789 33.2871 287.789 34.9629C287.789 36.6387 287.566 38.127 287.121 39.4277C286.688 40.7285 286.078 41.8242 285.293 42.7148C284.52 43.5938 283.588 44.2617 282.498 44.7188C281.42 45.1758 280.242 45.4043 278.965 45.4043C277.676 45.4043 276.492 45.1816 275.414 44.7363C274.336 44.2793 273.404 43.6172 272.619 42.75C271.846 41.8711 271.242 40.793 270.809 39.5156C270.375 38.2266 270.158 36.7441 270.158 35.0684ZM278.965 42.0996C279.633 42.0996 280.236 41.9648 280.775 41.6953C281.326 41.4141 281.795 40.9863 282.182 40.4121C282.58 39.8262 282.885 39.082 283.096 38.1797C283.318 37.2773 283.43 36.2051 283.43 34.9629C283.43 33.7207 283.318 32.6602 283.096 31.7812C282.885 30.8906 282.58 30.1641 282.182 29.6016C281.795 29.0273 281.326 28.6113 280.775 28.3535C280.236 28.084 279.633 27.9492 278.965 27.9492C278.309 27.9492 277.705 28.0898 277.154 28.3711C276.604 28.6406 276.129 29.0684 275.73 29.6543C275.344 30.2285 275.039 30.9668 274.816 31.8691C274.605 32.7598 274.5 33.8262 274.5 35.0684C274.5 36.3105 274.605 37.377 274.816 38.2676C275.039 39.1465 275.344 39.873 275.73 40.4473C276.129 41.0098 276.604 41.4258 277.154 41.6953C277.705 41.9648 278.309 42.0996 278.965 42.0996Z" fill="white"/>
<path d="M80.824 55.8224C80.7259 55.9196 80.7252 56.0779 80.8224 56.176L82.4064 57.774C82.5036 57.872 82.6619 57.8727 82.76 57.7755C82.858 57.6783 82.8587 57.52 82.7615 57.422L81.3535 56.0016L82.774 54.5936C82.872 54.4964 82.8727 54.3381 82.7755 54.24C82.6783 54.142 82.52 54.1413 82.422 54.2385L80.824 55.8224ZM308.001 56.75L81.0011 55.75L80.9989 56.25L307.999 57.25L308.001 56.75Z" fill="white"/>
<path d="M93.8232 63.8232C93.7256 63.9209 93.7256 64.0791 93.8232 64.1768L95.4142 65.7678C95.5118 65.8654 95.6701 65.8654 95.7678 65.7678C95.8654 65.6701 95.8654 65.5118 95.7678 65.4142L94.3536 64L95.7678 62.5858C95.8654 62.4882 95.8654 62.3299 95.7678 62.2322C95.6701 62.1346 95.5118 62.1346 95.4142 62.2322L93.8232 63.8232ZM308 63.75L94 63.75V64.25L308 64.25V63.75Z" fill="white"/>
<path d="M111.823 70.8232C111.726 70.9209 111.726 71.0791 111.823 71.1768L113.414 72.7678C113.512 72.8654 113.67 72.8654 113.768 72.7678C113.865 72.6701 113.865 72.5118 113.768 72.4142L112.354 71L113.768 69.5858C113.865 69.4882 113.865 69.3299 113.768 69.2322C113.67 69.1346 113.512 69.1346 113.414 69.2322L111.823 70.8232ZM308 70.75L112 70.75V71.25L308 71.25V70.75Z" fill="white"/>
<path d="M80.8232 32.8232C80.7256 32.9209 80.7256 33.0791 80.8232 33.1768L82.4142 34.7678C82.5118 34.8654 82.6701 34.8654 82.7678 34.7678C82.8654 34.6701 82.8654 34.5118 82.7678 34.4142L81.3536 33L82.7678 31.5858C82.8654 31.4882 82.8654 31.3299 82.7678 31.2322C82.6701 31.1346 82.5118 31.1346 82.4142 31.2322L80.8232 32.8232ZM169 32.75L81 32.75V33.25L169 33.25V32.75Z" fill="white"/>
<path d="M80.8232 20.8232C80.7256 20.9209 80.7256 21.0791 80.8232 21.1768L82.4142 22.7678C82.5118 22.8654 82.6701 22.8654 82.7678 22.7678C82.8654 22.6701 82.8654 22.5118 82.7678 22.4142L81.3536 21L82.7678 19.5858C82.8654 19.4882 82.8654 19.3299 82.7678 19.2322C82.6701 19.1346 82.5118 19.1346 82.4142 19.2322L80.8232 20.8232ZM169 20.75L81 20.75V21.25L169 21.25V20.75Z" fill="white"/>
<path d="M80.8232 12.8232C80.7256 12.9209 80.7256 13.0791 80.8232 13.1768L82.4142 14.7678C82.5118 14.8654 82.6701 14.8654 82.7678 14.7678C82.8654 14.6701 82.8654 14.5118 82.7678 14.4142L81.3535 13L82.7678 11.5858C82.8654 11.4882 82.8654 11.3299 82.7678 11.2322C82.6701 11.1346 82.5118 11.1346 82.4142 11.2322L80.8232 12.8232ZM308 12.75L81 12.75V13.25L308 13.25V12.75Z" fill="white"/>
<path d="M80.8232 44.8232C80.7256 44.9209 80.7256 45.0791 80.8232 45.1768L82.4142 46.7678C82.5118 46.8654 82.6701 46.8654 82.7678 46.7678C82.8654 46.6701 82.8654 46.5118 82.7678 46.4142L81.3536 45L82.7678 43.5858C82.8654 43.4882 82.8654 43.3299 82.7678 43.2322C82.6701 43.1346 82.5118 43.1346 82.4142 43.2322L80.8232 44.8232ZM173 44.75L81 44.75V45.25L173 45.25V44.75Z" fill="white"/>
<path d="M47.875 16C47.875 22.0116 43.2245 26.875 37.5 26.875C31.7755 26.875 27.125 22.0116 27.125 16C27.125 9.98836 31.7755 5.125 37.5 5.125C43.2245 5.125 47.875 9.98836 47.875 16Z" fill="#7D4CDB" stroke="white" stroke-width="0.25"/>
<path d="M40.6348 13.1387C40.4824 13.0645 40.3066 12.9863 40.1074 12.9043C39.9082 12.8184 39.6797 12.7422 39.4219 12.6758C39.168 12.6094 38.8809 12.5547 38.5605 12.5117C38.2402 12.4648 37.8848 12.4414 37.4941 12.4414C37.0215 12.4414 36.5996 12.4688 36.2285 12.5234C35.8613 12.5781 35.5488 12.6641 35.291 12.7812C35.0371 12.8945 34.8418 13.0391 34.7051 13.2148C34.5723 13.3906 34.5059 13.5996 34.5059 13.8418C34.5059 14.0449 34.5684 14.2227 34.6934 14.375C34.8223 14.5273 34.9941 14.6621 35.209 14.7793C35.4277 14.8965 35.6816 15.0039 35.9707 15.1016C36.2637 15.1953 36.5723 15.2852 36.8965 15.3711C37.2246 15.4531 37.5605 15.5371 37.9043 15.623C38.252 15.709 38.5879 15.8027 38.9121 15.9043C39.2402 16.002 39.5488 16.1133 39.8379 16.2383C40.1309 16.3594 40.3848 16.502 40.5996 16.666C40.8184 16.8301 40.9902 17.0176 41.1152 17.2285C41.2441 17.4395 41.3086 17.6836 41.3086 17.9609C41.3086 18.2617 41.252 18.5254 41.1387 18.752C41.0254 18.9746 40.8711 19.168 40.6758 19.332C40.4844 19.4922 40.2578 19.627 39.9961 19.7363C39.7383 19.8418 39.4609 19.9258 39.1641 19.9883C38.8711 20.0508 38.5664 20.0938 38.25 20.1172C37.9375 20.1445 37.6289 20.1582 37.3242 20.1582C36.625 20.1582 35.9902 20.1074 35.4199 20.0059C34.8535 19.9043 34.3125 19.7656 33.7969 19.5898V18.6934C34.3281 19.0098 34.8887 19.2266 35.4785 19.3438C36.0723 19.4609 36.6953 19.5195 37.3477 19.5195C37.8086 19.5195 38.2344 19.4922 38.625 19.4375C39.0156 19.3828 39.3535 19.2969 39.6387 19.1797C39.9238 19.0586 40.1445 18.9023 40.3008 18.7109C40.4609 18.5195 40.541 18.2852 40.541 18.0078C40.541 17.7852 40.4766 17.5898 40.3477 17.4219C40.2227 17.2539 40.0508 17.1074 39.832 16.9824C39.6172 16.8535 39.3633 16.7402 39.0703 16.6426C38.7812 16.5449 38.4746 16.4551 38.1504 16.373C37.8262 16.2871 37.4902 16.2051 37.1426 16.127C36.7988 16.0449 36.4648 15.957 36.1406 15.8633C35.8164 15.7695 35.5078 15.6641 35.2148 15.5469C34.9258 15.4297 34.6719 15.293 34.4531 15.1367C34.2383 14.9766 34.0664 14.793 33.9375 14.5859C33.8125 14.3789 33.75 14.1387 33.75 13.8652C33.75 13.5957 33.8008 13.3574 33.9023 13.1504C34.0039 12.9395 34.1426 12.7578 34.3184 12.6055C34.498 12.4531 34.707 12.3262 34.9453 12.2246C35.1836 12.1191 35.4375 12.0371 35.707 11.9785C35.9805 11.916 36.2637 11.8711 36.5566 11.8438C36.8496 11.8164 37.1387 11.8027 37.4238 11.8027C37.7363 11.8027 38.0312 11.8164 38.3086 11.8438C38.5898 11.8711 38.8594 11.9082 39.1172 11.9551C39.3789 11.998 39.6328 12.0488 39.8789 12.1074C40.1289 12.166 40.3809 12.2285 40.6348 12.2949V13.1387Z" fill="white"/>
<line x1="38.25" y1="10" x2="38.25" y2="23" stroke="white" stroke-width="0.5"/>
<line x1="36.25" y1="10" x2="36.25" y2="23" stroke="white" stroke-width="0.5"/>
</svg>
